<svg xmlns="http://www.w3.org/2000/svg" xmlns:xlink="http://www.w3.org/1999/xlink" width="500" zoomAndPan="magnify" viewBox="0 0 375 374.999991" height="500" preserveAspectRatio="xMidYMid meet" version="1.0"><defs><g/></defs><rect x="-37.5" width="450" fill="#ffffff" y="-37.499999" height="449.999989" fill-opacity="1"/><rect x="-37.5" width="450" fill="#2d2d2d" y="-37.499999" height="449.999989" fill-opacity="1"/><g fill="#ffffff" fill-opacity="1"><g transform="translate(106.420303, 197.294241)"><g><path d="M 4.171875 0 L 4.171875 -32.125 L 17.890625 -32.125 C 19.867188 -32.125 21.539062 -31.8125 22.90625 -31.1875 C 24.28125 -30.5625 25.316406 -29.675781 26.015625 -28.53125 C 26.722656 -27.382812 27.078125 -26.023438 27.078125 -24.453125 C 27.078125 -23.035156 26.726562 -21.785156 26.03125 -20.703125 C 25.34375 -19.617188 24.359375 -18.742188 23.078125 -18.078125 L 23.078125 -17.625 C 25.097656 -17.09375 26.65625 -16.128906 27.75 -14.734375 C 28.851562 -13.347656 29.40625 -11.644531 29.40625 -9.625 C 29.40625 -6.550781 28.476562 -4.175781 26.625 -2.5 C 24.769531 -0.832031 22.019531 0 18.375 0 Z M 16.5625 -19.3125 C 19.519531 -19.3125 21 -20.644531 21 -23.3125 C 21 -24.675781 20.632812 -25.691406 19.90625 -26.359375 C 19.175781 -27.023438 18.0625 -27.359375 16.5625 -27.359375 L 10.53125 -27.359375 L 10.53125 -19.3125 Z M 17.734375 -5.03125 C 21.234375 -5.03125 22.984375 -6.617188 22.984375 -9.796875 C 22.984375 -12.992188 21.234375 -14.59375 17.734375 -14.59375 L 10.53125 -14.59375 L 10.53125 -5.03125 Z M 17.734375 -5.03125 "/></g></g></g><g fill="#ffffff" fill-opacity="1"><g transform="translate(137.833017, 197.294241)"><g><path d="M 6.203125 0.203125 C 5.421875 0.203125 4.734375 0.046875 4.140625 -0.265625 C 3.546875 -0.585938 3.09375 -1.023438 2.78125 -1.578125 C 2.46875 -2.140625 2.3125 -2.769531 2.3125 -3.46875 C 2.3125 -4.175781 2.46875 -4.804688 2.78125 -5.359375 C 3.09375 -5.921875 3.546875 -6.359375 4.140625 -6.671875 C 4.734375 -6.992188 5.421875 -7.15625 6.203125 -7.15625 C 6.992188 -7.15625 7.679688 -7 8.265625 -6.6875 C 8.859375 -6.375 9.3125 -5.9375 9.625 -5.375 C 9.945312 -4.820312 10.109375 -4.195312 10.109375 -3.5 C 10.109375 -2.425781 9.75 -1.539062 9.03125 -0.84375 C 8.320312 -0.144531 7.378906 0.203125 6.203125 0.203125 Z M 6.203125 0.203125 "/></g></g></g><g fill="#ffffff" fill-opacity="1"><g transform="translate(150.24434, 197.294241)"><g><path d="M 19.09375 0 L 11.421875 0 L 0.578125 -32.125 L 7.3125 -32.125 L 15.125 -8.171875 L 15.671875 -8.171875 L 23.359375 -32.125 L 29.921875 -32.125 Z M 19.09375 0 "/></g></g></g><g fill="#ffffff" fill-opacity="1"><g transform="translate(180.734442, 197.294241)"><g><path d="M 6.203125 0.203125 C 5.421875 0.203125 4.734375 0.046875 4.140625 -0.265625 C 3.546875 -0.585938 3.09375 -1.023438 2.78125 -1.578125 C 2.46875 -2.140625 2.3125 -2.769531 2.3125 -3.46875 C 2.3125 -4.175781 2.46875 -4.804688 2.78125 -5.359375 C 3.09375 -5.921875 3.546875 -6.359375 4.140625 -6.671875 C 4.734375 -6.992188 5.421875 -7.15625 6.203125 -7.15625 C 6.992188 -7.15625 7.679688 -7 8.265625 -6.6875 C 8.859375 -6.375 9.3125 -5.9375 9.625 -5.375 C 9.945312 -4.820312 10.109375 -4.195312 10.109375 -3.5 C 10.109375 -2.425781 9.75 -1.539062 9.03125 -0.84375 C 8.320312 -0.144531 7.378906 0.203125 6.203125 0.203125 Z M 6.203125 0.203125 "/></g></g></g><g fill="#ffffff" fill-opacity="1"><g transform="translate(193.145765, 197.294241)"><g><path d="M 17.5625 0.46875 C 14.601562 0.46875 11.992188 -0.144531 9.734375 -1.375 C 7.472656 -2.613281 5.707031 -4.46875 4.4375 -6.9375 C 3.164062 -9.40625 2.53125 -12.445312 2.53125 -16.0625 C 2.53125 -19.675781 3.164062 -22.71875 4.4375 -25.1875 C 5.707031 -27.65625 7.472656 -29.503906 9.734375 -30.734375 C 11.992188 -31.960938 14.601562 -32.578125 17.5625 -32.578125 C 20.644531 -32.578125 23.265625 -31.972656 25.421875 -30.765625 C 27.585938 -29.554688 29.132812 -27.71875 30.0625 -25.25 L 25.421875 -22.40625 L 24.875 -22.4375 C 24.1875 -24.101562 23.25 -25.296875 22.0625 -26.015625 C 20.882812 -26.742188 19.382812 -27.109375 17.5625 -27.109375 C 14.894531 -27.109375 12.8125 -26.222656 11.3125 -24.453125 C 9.820312 -22.691406 9.078125 -19.894531 9.078125 -16.0625 C 9.078125 -12.238281 9.820312 -9.441406 11.3125 -7.671875 C 12.8125 -5.910156 14.894531 -5.03125 17.5625 -5.03125 C 21.726562 -5.03125 24.28125 -7.0625 25.21875 -11.125 L 25.78125 -11.125 L 30.453125 -8.671875 C 29.578125 -5.628906 28.078125 -3.34375 25.953125 -1.8125 C 23.828125 -0.289062 21.03125 0.46875 17.5625 0.46875 Z M 17.5625 0.46875 "/></g></g></g><g fill="#ffffff" fill-opacity="1"><g transform="translate(224.646346, 197.294241)"><g><path d="M 6.203125 0.203125 C 5.421875 0.203125 4.734375 0.046875 4.140625 -0.265625 C 3.546875 -0.585938 3.09375 -1.023438 2.78125 -1.578125 C 2.46875 -2.140625 2.3125 -2.769531 2.3125 -3.46875 C 2.3125 -4.175781 2.46875 -4.804688 2.78125 -5.359375 C 3.09375 -5.921875 3.546875 -6.359375 4.140625 -6.671875 C 4.734375 -6.992188 5.421875 -7.15625 6.203125 -7.15625 C 6.992188 -7.15625 7.679688 -7 8.265625 -6.6875 C 8.859375 -6.375 9.3125 -5.9375 9.625 -5.375 C 9.945312 -4.820312 10.109375 -4.195312 10.109375 -3.5 C 10.109375 -2.425781 9.75 -1.539062 9.03125 -0.84375 C 8.320312 -0.144531 7.378906 0.203125 6.203125 0.203125 Z M 6.203125 0.203125 "/></g></g></g><g fill="#ffffff" fill-opacity="1"><g transform="translate(237.057669, 197.294241)"><g><path d="M 17.5625 0.46875 C 14.601562 0.46875 11.992188 -0.144531 9.734375 -1.375 C 7.472656 -2.613281 5.707031 -4.46875 4.4375 -6.9375 C 3.164062 -9.40625 2.53125 -12.445312 2.53125 -16.0625 C 2.53125 -19.675781 3.164062 -22.71875 4.4375 -25.1875 C 5.707031 -27.65625 7.472656 -29.503906 9.734375 -30.734375 C 11.992188 -31.960938 14.601562 -32.578125 17.5625 -32.578125 C 20.644531 -32.578125 23.265625 -31.972656 25.421875 -30.765625 C 27.585938 -29.554688 29.132812 -27.71875 30.0625 -25.25 L 25.421875 -22.40625 L 24.875 -22.4375 C 24.1875 -24.101562 23.25 -25.296875 22.0625 -26.015625 C 20.882812 -26.742188 19.382812 -27.109375 17.5625 -27.109375 C 14.894531 -27.109375 12.8125 -26.222656 11.3125 -24.453125 C 9.820312 -22.691406 9.078125 -19.894531 9.078125 -16.0625 C 9.078125 -12.238281 9.820312 -9.441406 11.3125 -7.671875 C 12.8125 -5.910156 14.894531 -5.03125 17.5625 -5.03125 C 21.726562 -5.03125 24.28125 -7.0625 25.21875 -11.125 L 25.78125 -11.125 L 30.453125 -8.671875 C 29.578125 -5.628906 28.078125 -3.34375 25.953125 -1.8125 C 23.828125 -0.289062 21.03125 0.46875 17.5625 0.46875 Z M 17.5625 0.46875 "/></g></g></g><g fill="#ffffff" fill-opacity="1"><g transform="translate(10.162495, 259.357073)"><g><path d="M 2.046875 0 L 2.046875 -15.703125 L 8.75 -15.703125 C 9.707031 -15.703125 10.519531 -15.550781 11.1875 -15.25 C 11.863281 -14.945312 12.375 -14.515625 12.71875 -13.953125 C 13.0625 -13.390625 13.234375 -12.722656 13.234375 -11.953125 C 13.234375 -11.265625 13.0625 -10.65625 12.71875 -10.125 C 12.382812 -9.59375 11.90625 -9.164062 11.28125 -8.84375 L 11.28125 -8.609375 C 12.269531 -8.359375 13.03125 -7.890625 13.5625 -7.203125 C 14.101562 -6.523438 14.375 -5.691406 14.375 -4.703125 C 14.375 -3.203125 13.921875 -2.039062 13.015625 -1.21875 C 12.109375 -0.40625 10.765625 0 8.984375 0 Z M 8.09375 -9.4375 C 9.539062 -9.4375 10.265625 -10.085938 10.265625 -11.390625 C 10.265625 -12.054688 10.085938 -12.550781 9.734375 -12.875 C 9.378906 -13.207031 8.832031 -13.375 8.09375 -13.375 L 5.140625 -13.375 L 5.140625 -9.4375 Z M 8.671875 -2.453125 C 10.378906 -2.453125 11.234375 -3.234375 11.234375 -4.796875 C 11.234375 -6.359375 10.378906 -7.140625 8.671875 -7.140625 L 5.140625 -7.140625 L 5.140625 -2.453125 Z M 8.671875 -2.453125 "/></g></g></g><g fill="#ffffff" fill-opacity="1"><g transform="translate(25.521094, 259.357073)"><g><path d="M 4.921875 0.21875 C 3.847656 0.21875 3.03125 -0.0664062 2.46875 -0.640625 C 1.914062 -1.210938 1.640625 -2.085938 1.640625 -3.265625 L 1.640625 -16.609375 L 4.609375 -16.609375 L 4.609375 -3.390625 C 4.609375 -2.660156 4.910156 -2.296875 5.515625 -2.296875 C 5.679688 -2.296875 5.863281 -2.328125 6.0625 -2.390625 L 6.203125 -2.34375 L 6.484375 -0.046875 C 6.316406 0.0351562 6.097656 0.0976562 5.828125 0.140625 C 5.554688 0.191406 5.253906 0.21875 4.921875 0.21875 Z M 4.921875 0.21875 "/></g></g></g><g fill="#ffffff" fill-opacity="1"><g transform="translate(32.330431, 259.357073)"><g><path d="M 4.625 0.21875 C 3.863281 0.21875 3.203125 0.0820312 2.640625 -0.1875 C 2.085938 -0.46875 1.660156 -0.878906 1.359375 -1.421875 C 1.054688 -1.960938 0.90625 -2.613281 0.90625 -3.375 C 0.90625 -4.070312 1.054688 -4.660156 1.359375 -5.140625 C 1.660156 -5.617188 2.125 -6.007812 2.75 -6.3125 C 3.382812 -6.613281 4.207031 -6.847656 5.21875 -7.015625 C 5.925781 -7.128906 6.460938 -7.253906 6.828125 -7.390625 C 7.203125 -7.523438 7.453125 -7.675781 7.578125 -7.84375 C 7.710938 -8.019531 7.78125 -8.242188 7.78125 -8.515625 C 7.78125 -8.890625 7.644531 -9.175781 7.375 -9.375 C 7.113281 -9.570312 6.675781 -9.671875 6.0625 -9.671875 C 5.40625 -9.671875 4.773438 -9.523438 4.171875 -9.234375 C 3.578125 -8.941406 3.0625 -8.554688 2.625 -8.078125 L 2.421875 -8.078125 L 1.171875 -9.953125 C 1.773438 -10.617188 2.507812 -11.140625 3.375 -11.515625 C 4.238281 -11.890625 5.179688 -12.078125 6.203125 -12.078125 C 7.773438 -12.078125 8.910156 -11.742188 9.609375 -11.078125 C 10.316406 -10.410156 10.671875 -9.460938 10.671875 -8.234375 L 10.671875 -3.09375 C 10.671875 -2.5625 10.898438 -2.296875 11.359375 -2.296875 C 11.546875 -2.296875 11.722656 -2.328125 11.890625 -2.390625 L 12.046875 -2.359375 L 12.25 -0.28125 C 12.09375 -0.175781 11.863281 -0.0859375 11.5625 -0.015625 C 11.269531 0.0546875 10.953125 0.09375 10.609375 0.09375 C 9.898438 0.09375 9.34375 -0.0390625 8.9375 -0.3125 C 8.539062 -0.59375 8.257812 -1.019531 8.09375 -1.59375 L 7.859375 -1.625 C 7.285156 -0.394531 6.207031 0.21875 4.625 0.21875 Z M 5.5625 -2 C 6.25 -2 6.796875 -2.226562 7.203125 -2.6875 C 7.617188 -3.15625 7.828125 -3.800781 7.828125 -4.625 L 7.828125 -5.828125 L 7.625 -5.859375 C 7.445312 -5.722656 7.210938 -5.601562 6.921875 -5.5 C 6.628906 -5.40625 6.210938 -5.3125 5.671875 -5.21875 C 5.023438 -5.113281 4.5625 -4.929688 4.28125 -4.671875 C 4 -4.410156 3.859375 -4.039062 3.859375 -3.5625 C 3.859375 -3.050781 4.007812 -2.660156 4.3125 -2.390625 C 4.613281 -2.128906 5.03125 -2 5.5625 -2 Z M 5.5625 -2 "/></g></g></g><g fill="#ffffff" fill-opacity="1"><g transform="translate(44.821382, 259.357073)"><g><path d="M 6.90625 0.21875 C 5.757812 0.21875 4.742188 -0.015625 3.859375 -0.484375 C 2.984375 -0.960938 2.296875 -1.660156 1.796875 -2.578125 C 1.304688 -3.503906 1.0625 -4.617188 1.0625 -5.921875 C 1.0625 -7.222656 1.304688 -8.332031 1.796875 -9.25 C 2.296875 -10.175781 2.984375 -10.878906 3.859375 -11.359375 C 4.734375 -11.835938 5.734375 -12.078125 6.859375 -12.078125 C 9.359375 -12.078125 10.957031 -11.171875 11.65625 -9.359375 L 9.609375 -7.890625 L 9.390625 -7.890625 C 9.148438 -8.453125 8.832031 -8.867188 8.4375 -9.140625 C 8.050781 -9.410156 7.523438 -9.546875 6.859375 -9.546875 C 5.992188 -9.546875 5.320312 -9.25 4.84375 -8.65625 C 4.363281 -8.0625 4.125 -7.148438 4.125 -5.921875 C 4.125 -4.703125 4.367188 -3.789062 4.859375 -3.1875 C 5.347656 -2.59375 6.03125 -2.296875 6.90625 -2.296875 C 7.550781 -2.296875 8.097656 -2.46875 8.546875 -2.8125 C 8.992188 -3.164062 9.3125 -3.664062 9.5 -4.3125 L 9.734375 -4.34375 L 11.84375 -3.1875 C 11.539062 -2.175781 10.984375 -1.351562 10.171875 -0.71875 C 9.359375 -0.09375 8.269531 0.21875 6.90625 0.21875 Z M 6.90625 0.21875 "/></g></g></g><g fill="#ffffff" fill-opacity="1"><g transform="translate(57.033086, 259.357073)"><g><path d="M 1.703125 0 L 1.703125 -16.609375 L 4.6875 -16.609375 L 4.6875 -7.390625 L 4.96875 -7.390625 L 8.40625 -11.84375 L 11.421875 -11.84375 L 11.421875 -11.609375 L 7.390625 -6.40625 L 11.875 -0.265625 L 11.875 0 L 8.734375 0 L 4.96875 -5 L 4.6875 -5 L 4.6875 0 Z M 1.703125 0 "/></g></g></g><g fill="#ffffff" fill-opacity="1"><g transform="translate(68.922581, 259.357073)"><g/></g></g><g fill="#ffffff" fill-opacity="1"><g transform="translate(74.110141, 259.357073)"><g><path d="M 9.328125 0 L 5.59375 0 L 0.28125 -15.703125 L 3.578125 -15.703125 L 7.390625 -4 L 7.65625 -4 L 11.421875 -15.703125 L 14.625 -15.703125 Z M 9.328125 0 "/></g></g></g><g fill="#ffffff" fill-opacity="1"><g transform="translate(89.017649, 259.357073)"><g><path d="M 11.703125 -5.25 L 4.09375 -5.25 C 4.175781 -4.21875 4.46875 -3.46875 4.96875 -3 C 5.46875 -2.53125 6.15625 -2.296875 7.03125 -2.296875 C 7.707031 -2.296875 8.253906 -2.421875 8.671875 -2.671875 C 9.097656 -2.929688 9.441406 -3.316406 9.703125 -3.828125 L 9.921875 -3.828125 L 11.90625 -2.5625 C 11.519531 -1.738281 10.9375 -1.066406 10.15625 -0.546875 C 9.375 -0.0351562 8.332031 0.21875 7.03125 0.21875 C 5.800781 0.21875 4.738281 -0.0078125 3.84375 -0.46875 C 2.957031 -0.9375 2.269531 -1.628906 1.78125 -2.546875 C 1.300781 -3.472656 1.0625 -4.597656 1.0625 -5.921875 C 1.0625 -7.265625 1.316406 -8.394531 1.828125 -9.3125 C 2.335938 -10.238281 3.023438 -10.929688 3.890625 -11.390625 C 4.753906 -11.847656 5.726562 -12.078125 6.8125 -12.078125 C 8.488281 -12.078125 9.769531 -11.628906 10.65625 -10.734375 C 11.550781 -9.847656 12 -8.546875 12 -6.828125 C 12 -6.203125 11.976562 -5.71875 11.9375 -5.375 Z M 9.15625 -7.171875 C 9.125 -8.078125 8.910156 -8.734375 8.515625 -9.140625 C 8.128906 -9.554688 7.5625 -9.765625 6.8125 -9.765625 C 5.3125 -9.765625 4.425781 -8.898438 4.15625 -7.171875 Z M 9.15625 -7.171875 "/></g></g></g><g fill="#ffffff" fill-opacity="1"><g transform="translate(101.895249, 259.357073)"><g><path d="M 1.703125 0 L 1.703125 -11.84375 L 4.5625 -11.84375 L 4.5625 -10.109375 L 4.796875 -10.0625 C 5.523438 -11.40625 6.71875 -12.078125 8.375 -12.078125 C 9.75 -12.078125 10.753906 -11.703125 11.390625 -10.953125 C 12.035156 -10.210938 12.359375 -9.128906 12.359375 -7.703125 L 12.359375 0 L 9.375 0 L 9.375 -7.34375 C 9.375 -8.125 9.21875 -8.6875 8.90625 -9.03125 C 8.59375 -9.382812 8.085938 -9.5625 7.390625 -9.5625 C 6.535156 -9.5625 5.867188 -9.285156 5.390625 -8.734375 C 4.921875 -8.179688 4.6875 -7.316406 4.6875 -6.140625 L 4.6875 0 Z M 1.703125 0 "/></g></g></g><g fill="#ffffff" fill-opacity="1"><g transform="translate(115.771691, 259.357073)"><g><path d="M 8.171875 -2.828125 L 8.953125 -0.625 C 8.628906 -0.351562 8.222656 -0.144531 7.734375 0 C 7.242188 0.144531 6.691406 0.21875 6.078125 0.21875 C 4.796875 0.21875 3.820312 -0.128906 3.15625 -0.828125 C 2.488281 -1.523438 2.15625 -2.539062 2.15625 -3.875 L 2.15625 -9.5 L 0.359375 -9.5 L 0.359375 -11.859375 L 2.15625 -11.859375 L 2.15625 -14.171875 L 5.140625 -14.65625 L 5.140625 -11.859375 L 8.5 -11.859375 L 8.5 -9.5 L 5.140625 -9.5 L 5.140625 -4.078125 C 5.140625 -3.492188 5.257812 -3.066406 5.5 -2.796875 C 5.738281 -2.523438 6.09375 -2.390625 6.5625 -2.390625 C 7.09375 -2.390625 7.554688 -2.535156 7.953125 -2.828125 Z M 8.171875 -2.828125 "/></g></g></g><g fill="#ffffff" fill-opacity="1"><g transform="translate(124.976116, 259.357073)"><g><path d="M 5.421875 0.21875 C 4.085938 0.21875 3.101562 -0.140625 2.46875 -0.859375 C 1.84375 -1.585938 1.53125 -2.632812 1.53125 -4 L 1.53125 -11.84375 L 4.5 -11.84375 L 4.5 -4.375 C 4.5 -3.644531 4.65625 -3.113281 4.96875 -2.78125 C 5.28125 -2.445312 5.757812 -2.28125 6.40625 -2.28125 C 7.238281 -2.28125 7.882812 -2.550781 8.34375 -3.09375 C 8.800781 -3.632812 9.03125 -4.488281 9.03125 -5.65625 L 9.03125 -11.84375 L 12 -11.84375 L 12 0 L 9.140625 0 L 9.140625 -1.734375 L 8.921875 -1.796875 C 8.535156 -1.117188 8.066406 -0.613281 7.515625 -0.28125 C 6.972656 0.0507812 6.273438 0.21875 5.421875 0.21875 Z M 5.421875 0.21875 "/></g></g></g><g fill="#ffffff" fill-opacity="1"><g transform="translate(138.680713, 259.357073)"><g><path d="M 1.703125 0 L 1.703125 -11.84375 L 4.59375 -11.84375 L 4.59375 -10.09375 L 4.828125 -10.046875 C 5.109375 -10.703125 5.484375 -11.179688 5.953125 -11.484375 C 6.421875 -11.796875 6.988281 -11.953125 7.65625 -11.953125 C 8.320312 -11.953125 8.832031 -11.835938 9.1875 -11.609375 L 8.6875 -9.046875 L 8.453125 -9 C 8.265625 -9.082031 8.078125 -9.140625 7.890625 -9.171875 C 7.710938 -9.210938 7.492188 -9.234375 7.234375 -9.234375 C 6.410156 -9.234375 5.78125 -8.941406 5.34375 -8.359375 C 4.90625 -7.773438 4.6875 -6.835938 4.6875 -5.546875 L 4.6875 0 Z M 1.703125 0 "/></g></g></g><g fill="#ffffff" fill-opacity="1"><g transform="translate(147.97106, 259.357073)"><g><path d="M 11.703125 -5.25 L 4.09375 -5.25 C 4.175781 -4.21875 4.46875 -3.46875 4.96875 -3 C 5.46875 -2.53125 6.15625 -2.296875 7.03125 -2.296875 C 7.707031 -2.296875 8.253906 -2.421875 8.671875 -2.671875 C 9.097656 -2.929688 9.441406 -3.316406 9.703125 -3.828125 L 9.921875 -3.828125 L 11.90625 -2.5625 C 11.519531 -1.738281 10.9375 -1.066406 10.15625 -0.546875 C 9.375 -0.0351562 8.332031 0.21875 7.03125 0.21875 C 5.800781 0.21875 4.738281 -0.0078125 3.84375 -0.46875 C 2.957031 -0.9375 2.269531 -1.628906 1.78125 -2.546875 C 1.300781 -3.472656 1.0625 -4.597656 1.0625 -5.921875 C 1.0625 -7.265625 1.316406 -8.394531 1.828125 -9.3125 C 2.335938 -10.238281 3.023438 -10.929688 3.890625 -11.390625 C 4.753906 -11.847656 5.726562 -12.078125 6.8125 -12.078125 C 8.488281 -12.078125 9.769531 -11.628906 10.65625 -10.734375 C 11.550781 -9.847656 12 -8.546875 12 -6.828125 C 12 -6.203125 11.976562 -5.71875 11.9375 -5.375 Z M 9.15625 -7.171875 C 9.125 -8.078125 8.910156 -8.734375 8.515625 -9.140625 C 8.128906 -9.554688 7.5625 -9.765625 6.8125 -9.765625 C 5.3125 -9.765625 4.425781 -8.898438 4.15625 -7.171875 Z M 9.15625 -7.171875 "/></g></g></g><g fill="#ffffff" fill-opacity="1"><g transform="translate(160.84866, 259.357073)"><g/></g></g><g fill="#ffffff" fill-opacity="1"><g transform="translate(166.036221, 259.357073)"><g><path d="M 8.578125 0.21875 C 7.128906 0.21875 5.851562 -0.078125 4.75 -0.671875 C 3.65625 -1.273438 2.796875 -2.179688 2.171875 -3.390625 C 1.546875 -4.597656 1.234375 -6.085938 1.234375 -7.859375 C 1.234375 -9.617188 1.546875 -11.101562 2.171875 -12.3125 C 2.796875 -13.519531 3.65625 -14.425781 4.75 -15.03125 C 5.851562 -15.632812 7.128906 -15.9375 8.578125 -15.9375 C 10.085938 -15.9375 11.367188 -15.640625 12.421875 -15.046875 C 13.484375 -14.453125 14.242188 -13.550781 14.703125 -12.34375 L 12.421875 -10.953125 L 12.15625 -10.96875 C 11.820312 -11.78125 11.363281 -12.363281 10.78125 -12.71875 C 10.207031 -13.070312 9.472656 -13.25 8.578125 -13.25 C 7.273438 -13.25 6.257812 -12.816406 5.53125 -11.953125 C 4.800781 -11.097656 4.4375 -9.734375 4.4375 -7.859375 C 4.4375 -5.984375 4.800781 -4.613281 5.53125 -3.75 C 6.257812 -2.882812 7.273438 -2.453125 8.578125 -2.453125 C 10.617188 -2.453125 11.867188 -3.445312 12.328125 -5.4375 L 12.59375 -5.4375 L 14.890625 -4.25 C 14.460938 -2.757812 13.726562 -1.640625 12.6875 -0.890625 C 11.644531 -0.148438 10.273438 0.21875 8.578125 0.21875 Z M 8.578125 0.21875 "/></g></g></g><g fill="#ffffff" fill-opacity="1"><g transform="translate(181.437782, 259.357073)"><g><path d="M 4.625 0.21875 C 3.863281 0.21875 3.203125 0.0820312 2.640625 -0.1875 C 2.085938 -0.46875 1.660156 -0.878906 1.359375 -1.421875 C 1.054688 -1.960938 0.90625 -2.613281 0.90625 -3.375 C 0.90625 -4.070312 1.054688 -4.660156 1.359375 -5.140625 C 1.660156 -5.617188 2.125 -6.007812 2.75 -6.3125 C 3.382812 -6.613281 4.207031 -6.847656 5.21875 -7.015625 C 5.925781 -7.128906 6.460938 -7.253906 6.828125 -7.390625 C 7.203125 -7.523438 7.453125 -7.675781 7.578125 -7.84375 C 7.710938 -8.019531 7.78125 -8.242188 7.78125 -8.515625 C 7.78125 -8.890625 7.644531 -9.175781 7.375 -9.375 C 7.113281 -9.570312 6.675781 -9.671875 6.0625 -9.671875 C 5.40625 -9.671875 4.773438 -9.523438 4.171875 -9.234375 C 3.578125 -8.941406 3.0625 -8.554688 2.625 -8.078125 L 2.421875 -8.078125 L 1.171875 -9.953125 C 1.773438 -10.617188 2.507812 -11.140625 3.375 -11.515625 C 4.238281 -11.890625 5.179688 -12.078125 6.203125 -12.078125 C 7.773438 -12.078125 8.910156 -11.742188 9.609375 -11.078125 C 10.316406 -10.410156 10.671875 -9.460938 10.671875 -8.234375 L 10.671875 -3.09375 C 10.671875 -2.5625 10.898438 -2.296875 11.359375 -2.296875 C 11.546875 -2.296875 11.722656 -2.328125 11.890625 -2.390625 L 12.046875 -2.359375 L 12.25 -0.28125 C 12.09375 -0.175781 11.863281 -0.0859375 11.5625 -0.015625 C 11.269531 0.0546875 10.953125 0.09375 10.609375 0.09375 C 9.898438 0.09375 9.34375 -0.0390625 8.9375 -0.3125 C 8.539062 -0.59375 8.257812 -1.019531 8.09375 -1.59375 L 7.859375 -1.625 C 7.285156 -0.394531 6.207031 0.21875 4.625 0.21875 Z M 5.5625 -2 C 6.25 -2 6.796875 -2.226562 7.203125 -2.6875 C 7.617188 -3.15625 7.828125 -3.800781 7.828125 -4.625 L 7.828125 -5.828125 L 7.625 -5.859375 C 7.445312 -5.722656 7.210938 -5.601562 6.921875 -5.5 C 6.628906 -5.40625 6.210938 -5.3125 5.671875 -5.21875 C 5.023438 -5.113281 4.5625 -4.929688 4.28125 -4.671875 C 4 -4.410156 3.859375 -4.039062 3.859375 -3.5625 C 3.859375 -3.050781 4.007812 -2.660156 4.3125 -2.390625 C 4.613281 -2.128906 5.03125 -2 5.5625 -2 Z M 5.5625 -2 "/></g></g></g><g fill="#ffffff" fill-opacity="1"><g transform="translate(193.928733, 259.357073)"><g><path d="M 1.703125 4.796875 L 1.703125 -11.84375 L 4.6875 -11.84375 L 4.6875 -10.296875 L 4.90625 -10.265625 C 5.257812 -10.859375 5.726562 -11.304688 6.3125 -11.609375 C 6.90625 -11.921875 7.59375 -12.078125 8.375 -12.078125 C 9.332031 -12.078125 10.164062 -11.847656 10.875 -11.390625 C 11.59375 -10.941406 12.148438 -10.253906 12.546875 -9.328125 C 12.941406 -8.410156 13.140625 -7.273438 13.140625 -5.921875 C 13.140625 -4.566406 12.925781 -3.429688 12.5 -2.515625 C 12.082031 -1.597656 11.5 -0.910156 10.75 -0.453125 C 10.007812 -0.00390625 9.15625 0.21875 8.1875 0.21875 C 7.445312 0.21875 6.804688 0.0976562 6.265625 -0.140625 C 5.734375 -0.390625 5.28125 -0.773438 4.90625 -1.296875 L 4.6875 -1.25 L 4.6875 4.796875 Z M 7.359375 -2.296875 C 8.242188 -2.296875 8.914062 -2.585938 9.375 -3.171875 C 9.832031 -3.753906 10.0625 -4.671875 10.0625 -5.921875 C 10.0625 -7.171875 9.832031 -8.085938 9.375 -8.671875 C 8.914062 -9.253906 8.242188 -9.546875 7.359375 -9.546875 C 6.523438 -9.546875 5.863281 -9.242188 5.375 -8.640625 C 4.894531 -8.046875 4.65625 -7.140625 4.65625 -5.921875 C 4.65625 -4.710938 4.894531 -3.804688 5.375 -3.203125 C 5.863281 -2.597656 6.523438 -2.296875 7.359375 -2.296875 Z M 7.359375 -2.296875 "/></g></g></g><g fill="#ffffff" fill-opacity="1"><g transform="translate(208.116659, 259.357073)"><g><path d="M 3.1875 -13.265625 C 2.65625 -13.265625 2.21875 -13.425781 1.875 -13.75 C 1.539062 -14.082031 1.375 -14.503906 1.375 -15.015625 C 1.375 -15.523438 1.539062 -15.941406 1.875 -16.265625 C 2.21875 -16.597656 2.65625 -16.765625 3.1875 -16.765625 C 3.550781 -16.765625 3.867188 -16.6875 4.140625 -16.53125 C 4.421875 -16.382812 4.640625 -16.175781 4.796875 -15.90625 C 4.953125 -15.644531 5.03125 -15.347656 5.03125 -15.015625 C 5.03125 -14.679688 4.953125 -14.378906 4.796875 -14.109375 C 4.640625 -13.847656 4.421875 -13.640625 4.140625 -13.484375 C 3.867188 -13.335938 3.550781 -13.265625 3.1875 -13.265625 Z M 1.703125 0 L 1.703125 -11.84375 L 4.6875 -11.84375 L 4.6875 0 Z M 1.703125 0 "/></g></g></g><g fill="#ffffff" fill-opacity="1"><g transform="translate(214.496373, 259.357073)"><g><path d="M 8.171875 -2.828125 L 8.953125 -0.625 C 8.628906 -0.351562 8.222656 -0.144531 7.734375 0 C 7.242188 0.144531 6.691406 0.21875 6.078125 0.21875 C 4.796875 0.21875 3.820312 -0.128906 3.15625 -0.828125 C 2.488281 -1.523438 2.15625 -2.539062 2.15625 -3.875 L 2.15625 -9.5 L 0.359375 -9.5 L 0.359375 -11.859375 L 2.15625 -11.859375 L 2.15625 -14.171875 L 5.140625 -14.65625 L 5.140625 -11.859375 L 8.5 -11.859375 L 8.5 -9.5 L 5.140625 -9.5 L 5.140625 -4.078125 C 5.140625 -3.492188 5.257812 -3.066406 5.5 -2.796875 C 5.738281 -2.523438 6.09375 -2.390625 6.5625 -2.390625 C 7.09375 -2.390625 7.554688 -2.535156 7.953125 -2.828125 Z M 8.171875 -2.828125 "/></g></g></g><g fill="#ffffff" fill-opacity="1"><g transform="translate(223.70081, 259.357073)"><g><path d="M 4.625 0.21875 C 3.863281 0.21875 3.203125 0.0820312 2.640625 -0.1875 C 2.085938 -0.46875 1.660156 -0.878906 1.359375 -1.421875 C 1.054688 -1.960938 0.90625 -2.613281 0.90625 -3.375 C 0.90625 -4.070312 1.054688 -4.660156 1.359375 -5.140625 C 1.660156 -5.617188 2.125 -6.007812 2.75 -6.3125 C 3.382812 -6.613281 4.207031 -6.847656 5.21875 -7.015625 C 5.925781 -7.128906 6.460938 -7.253906 6.828125 -7.390625 C 7.203125 -7.523438 7.453125 -7.675781 7.578125 -7.84375 C 7.710938 -8.019531 7.78125 -8.242188 7.78125 -8.515625 C 7.78125 -8.890625 7.644531 -9.175781 7.375 -9.375 C 7.113281 -9.570312 6.675781 -9.671875 6.0625 -9.671875 C 5.40625 -9.671875 4.773438 -9.523438 4.171875 -9.234375 C 3.578125 -8.941406 3.0625 -8.554688 2.625 -8.078125 L 2.421875 -8.078125 L 1.171875 -9.953125 C 1.773438 -10.617188 2.507812 -11.140625 3.375 -11.515625 C 4.238281 -11.890625 5.179688 -12.078125 6.203125 -12.078125 C 7.773438 -12.078125 8.910156 -11.742188 9.609375 -11.078125 C 10.316406 -10.410156 10.671875 -9.460938 10.671875 -8.234375 L 10.671875 -3.09375 C 10.671875 -2.5625 10.898438 -2.296875 11.359375 -2.296875 C 11.546875 -2.296875 11.722656 -2.328125 11.890625 -2.390625 L 12.046875 -2.359375 L 12.25 -0.28125 C 12.09375 -0.175781 11.863281 -0.0859375 11.5625 -0.015625 C 11.269531 0.0546875 10.953125 0.09375 10.609375 0.09375 C 9.898438 0.09375 9.34375 -0.0390625 8.9375 -0.3125 C 8.539062 -0.59375 8.257812 -1.019531 8.09375 -1.59375 L 7.859375 -1.625 C 7.285156 -0.394531 6.207031 0.21875 4.625 0.21875 Z M 5.5625 -2 C 6.25 -2 6.796875 -2.226562 7.203125 -2.6875 C 7.617188 -3.15625 7.828125 -3.800781 7.828125 -4.625 L 7.828125 -5.828125 L 7.625 -5.859375 C 7.445312 -5.722656 7.210938 -5.601562 6.921875 -5.5 C 6.628906 -5.40625 6.210938 -5.3125 5.671875 -5.21875 C 5.023438 -5.113281 4.5625 -4.929688 4.28125 -4.671875 C 4 -4.410156 3.859375 -4.039062 3.859375 -3.5625 C 3.859375 -3.050781 4.007812 -2.660156 4.3125 -2.390625 C 4.613281 -2.128906 5.03125 -2 5.5625 -2 Z M 5.5625 -2 "/></g></g></g><g fill="#ffffff" fill-opacity="1"><g transform="translate(236.191761, 259.357073)"><g><path d="M 4.921875 0.21875 C 3.847656 0.21875 3.03125 -0.0664062 2.46875 -0.640625 C 1.914062 -1.210938 1.640625 -2.085938 1.640625 -3.265625 L 1.640625 -16.609375 L 4.609375 -16.609375 L 4.609375 -3.390625 C 4.609375 -2.660156 4.910156 -2.296875 5.515625 -2.296875 C 5.679688 -2.296875 5.863281 -2.328125 6.0625 -2.390625 L 6.203125 -2.34375 L 6.484375 -0.046875 C 6.316406 0.0351562 6.097656 0.0976562 5.828125 0.140625 C 5.554688 0.191406 5.253906 0.21875 4.921875 0.21875 Z M 4.921875 0.21875 "/></g></g></g><g fill="#ffffff" fill-opacity="1"><g transform="translate(248.188647, 259.357073)"><g><path d="M 8.578125 0.21875 C 7.128906 0.21875 5.851562 -0.078125 4.75 -0.671875 C 3.65625 -1.273438 2.796875 -2.179688 2.171875 -3.390625 C 1.546875 -4.597656 1.234375 -6.085938 1.234375 -7.859375 C 1.234375 -9.617188 1.546875 -11.101562 2.171875 -12.3125 C 2.796875 -13.519531 3.65625 -14.425781 4.75 -15.03125 C 5.851562 -15.632812 7.128906 -15.9375 8.578125 -15.9375 C 10.085938 -15.9375 11.367188 -15.640625 12.421875 -15.046875 C 13.484375 -14.453125 14.242188 -13.550781 14.703125 -12.34375 L 12.421875 -10.953125 L 12.15625 -10.96875 C 11.820312 -11.78125 11.363281 -12.363281 10.78125 -12.71875 C 10.207031 -13.070312 9.472656 -13.25 8.578125 -13.25 C 7.273438 -13.25 6.257812 -12.816406 5.53125 -11.953125 C 4.800781 -11.097656 4.4375 -9.734375 4.4375 -7.859375 C 4.4375 -5.984375 4.800781 -4.613281 5.53125 -3.75 C 6.257812 -2.882812 7.273438 -2.453125 8.578125 -2.453125 C 10.617188 -2.453125 11.867188 -3.445312 12.328125 -5.4375 L 12.59375 -5.4375 L 14.890625 -4.25 C 14.460938 -2.757812 13.726562 -1.640625 12.6875 -0.890625 C 11.644531 -0.148438 10.273438 0.21875 8.578125 0.21875 Z M 8.578125 0.21875 "/></g></g></g><g fill="#ffffff" fill-opacity="1"><g transform="translate(263.590196, 259.357073)"><g><path d="M 6.890625 0.21875 C 5.722656 0.21875 4.703125 -0.015625 3.828125 -0.484375 C 2.953125 -0.960938 2.269531 -1.660156 1.78125 -2.578125 C 1.300781 -3.503906 1.0625 -4.617188 1.0625 -5.921875 C 1.0625 -7.222656 1.300781 -8.332031 1.78125 -9.25 C 2.269531 -10.175781 2.953125 -10.878906 3.828125 -11.359375 C 4.703125 -11.835938 5.722656 -12.078125 6.890625 -12.078125 C 8.046875 -12.078125 9.0625 -11.835938 9.9375 -11.359375 C 10.820312 -10.878906 11.503906 -10.175781 11.984375 -9.25 C 12.472656 -8.332031 12.71875 -7.222656 12.71875 -5.921875 C 12.71875 -4.617188 12.472656 -3.503906 11.984375 -2.578125 C 11.503906 -1.660156 10.820312 -0.960938 9.9375 -0.484375 C 9.0625 -0.015625 8.046875 0.21875 6.890625 0.21875 Z M 6.890625 -2.296875 C 8.722656 -2.296875 9.640625 -3.503906 9.640625 -5.921875 C 9.640625 -7.171875 9.40625 -8.085938 8.9375 -8.671875 C 8.46875 -9.253906 7.785156 -9.546875 6.890625 -9.546875 C 5.046875 -9.546875 4.125 -8.335938 4.125 -5.921875 C 4.125 -3.503906 5.046875 -2.296875 6.890625 -2.296875 Z M 6.890625 -2.296875 "/></g></g></g><g fill="#ffffff" fill-opacity="1"><g transform="translate(277.359223, 259.357073)"><g><path d="M 1.703125 0 L 1.703125 -11.84375 L 4.5625 -11.84375 L 4.5625 -10.109375 L 4.796875 -10.0625 C 5.523438 -11.40625 6.71875 -12.078125 8.375 -12.078125 C 9.75 -12.078125 10.753906 -11.703125 11.390625 -10.953125 C 12.035156 -10.210938 12.359375 -9.128906 12.359375 -7.703125 L 12.359375 0 L 9.375 0 L 9.375 -7.34375 C 9.375 -8.125 9.21875 -8.6875 8.90625 -9.03125 C 8.59375 -9.382812 8.085938 -9.5625 7.390625 -9.5625 C 6.535156 -9.5625 5.867188 -9.285156 5.390625 -8.734375 C 4.921875 -8.179688 4.6875 -7.316406 4.6875 -6.140625 L 4.6875 0 Z M 1.703125 0 "/></g></g></g><g fill="#ffffff" fill-opacity="1"><g transform="translate(291.235665, 259.357073)"><g><path d="M 5.546875 0.21875 C 4.734375 0.21875 3.988281 0.125 3.3125 -0.0625 C 2.644531 -0.25 2.070312 -0.507812 1.59375 -0.84375 C 1.113281 -1.175781 0.757812 -1.554688 0.53125 -1.984375 L 2.1875 -3.765625 L 2.421875 -3.765625 C 2.816406 -3.234375 3.28125 -2.835938 3.8125 -2.578125 C 4.351562 -2.316406 4.9375 -2.1875 5.5625 -2.1875 C 6.144531 -2.1875 6.582031 -2.285156 6.875 -2.484375 C 7.164062 -2.691406 7.3125 -2.992188 7.3125 -3.390625 C 7.3125 -3.679688 7.207031 -3.929688 7 -4.140625 C 6.789062 -4.347656 6.445312 -4.507812 5.96875 -4.625 L 4.40625 -5 C 3.226562 -5.28125 2.367188 -5.707031 1.828125 -6.28125 C 1.285156 -6.851562 1.015625 -7.582031 1.015625 -8.46875 C 1.015625 -9.207031 1.203125 -9.847656 1.578125 -10.390625 C 1.960938 -10.941406 2.492188 -11.359375 3.171875 -11.640625 C 3.859375 -11.929688 4.65625 -12.078125 5.5625 -12.078125 C 6.632812 -12.078125 7.519531 -11.921875 8.21875 -11.609375 C 8.914062 -11.304688 9.460938 -10.894531 9.859375 -10.375 L 8.265625 -8.65625 L 8.0625 -8.65625 C 7.726562 -9.03125 7.351562 -9.300781 6.9375 -9.46875 C 6.53125 -9.644531 6.070312 -9.734375 5.5625 -9.734375 C 4.382812 -9.734375 3.796875 -9.367188 3.796875 -8.640625 C 3.796875 -8.328125 3.90625 -8.070312 4.125 -7.875 C 4.34375 -7.6875 4.726562 -7.53125 5.28125 -7.40625 L 6.75 -7.09375 C 7.945312 -6.832031 8.820312 -6.414062 9.375 -5.84375 C 9.9375 -5.28125 10.21875 -4.519531 10.21875 -3.5625 C 10.21875 -2.800781 10.03125 -2.132812 9.65625 -1.5625 C 9.28125 -0.988281 8.742188 -0.546875 8.046875 -0.234375 C 7.347656 0.0664062 6.515625 0.21875 5.546875 0.21875 Z M 5.546875 0.21875 "/></g></g></g><g fill="#ffffff" fill-opacity="1"><g transform="translate(302.158523, 259.357073)"><g><path d="M 6.890625 0.21875 C 5.722656 0.21875 4.703125 -0.015625 3.828125 -0.484375 C 2.953125 -0.960938 2.269531 -1.660156 1.78125 -2.578125 C 1.300781 -3.503906 1.0625 -4.617188 1.0625 -5.921875 C 1.0625 -7.222656 1.300781 -8.332031 1.78125 -9.25 C 2.269531 -10.175781 2.953125 -10.878906 3.828125 -11.359375 C 4.703125 -11.835938 5.722656 -12.078125 6.890625 -12.078125 C 8.046875 -12.078125 9.0625 -11.835938 9.9375 -11.359375 C 10.820312 -10.878906 11.503906 -10.175781 11.984375 -9.25 C 12.472656 -8.332031 12.71875 -7.222656 12.71875 -5.921875 C 12.71875 -4.617188 12.472656 -3.503906 11.984375 -2.578125 C 11.503906 -1.660156 10.820312 -0.960938 9.9375 -0.484375 C 9.0625 -0.015625 8.046875 0.21875 6.890625 0.21875 Z M 6.890625 -2.296875 C 8.722656 -2.296875 9.640625 -3.503906 9.640625 -5.921875 C 9.640625 -7.171875 9.40625 -8.085938 8.9375 -8.671875 C 8.46875 -9.253906 7.785156 -9.546875 6.890625 -9.546875 C 5.046875 -9.546875 4.125 -8.335938 4.125 -5.921875 C 4.125 -3.503906 5.046875 -2.296875 6.890625 -2.296875 Z M 6.890625 -2.296875 "/></g></g></g><g fill="#ffffff" fill-opacity="1"><g transform="translate(315.92755, 259.357073)"><g><path d="M 1.703125 0 L 1.703125 -11.84375 L 4.59375 -11.84375 L 4.59375 -10.09375 L 4.828125 -10.046875 C 5.109375 -10.703125 5.484375 -11.179688 5.953125 -11.484375 C 6.421875 -11.796875 6.988281 -11.953125 7.65625 -11.953125 C 8.320312 -11.953125 8.832031 -11.835938 9.1875 -11.609375 L 8.6875 -9.046875 L 8.453125 -9 C 8.265625 -9.082031 8.078125 -9.140625 7.890625 -9.171875 C 7.710938 -9.210938 7.492188 -9.234375 7.234375 -9.234375 C 6.410156 -9.234375 5.78125 -8.941406 5.34375 -8.359375 C 4.90625 -7.773438 4.6875 -6.835938 4.6875 -5.546875 L 4.6875 0 Z M 1.703125 0 "/></g></g></g><g fill="#ffffff" fill-opacity="1"><g transform="translate(325.217909, 259.357073)"><g><path d="M 8.171875 -2.828125 L 8.953125 -0.625 C 8.628906 -0.351562 8.222656 -0.144531 7.734375 0 C 7.242188 0.144531 6.691406 0.21875 6.078125 0.21875 C 4.796875 0.21875 3.820312 -0.128906 3.15625 -0.828125 C 2.488281 -1.523438 2.15625 -2.539062 2.15625 -3.875 L 2.15625 -9.5 L 0.359375 -9.5 L 0.359375 -11.859375 L 2.15625 -11.859375 L 2.15625 -14.171875 L 5.140625 -14.65625 L 5.140625 -11.859375 L 8.5 -11.859375 L 8.5 -9.5 L 5.140625 -9.5 L 5.140625 -4.078125 C 5.140625 -3.492188 5.257812 -3.066406 5.5 -2.796875 C 5.738281 -2.523438 6.09375 -2.390625 6.5625 -2.390625 C 7.09375 -2.390625 7.554688 -2.535156 7.953125 -2.828125 Z M 8.171875 -2.828125 "/></g></g></g><g fill="#ffffff" fill-opacity="1"><g transform="translate(334.422346, 259.357073)"><g><path d="M 3.1875 -13.265625 C 2.65625 -13.265625 2.21875 -13.425781 1.875 -13.75 C 1.539062 -14.082031 1.375 -14.503906 1.375 -15.015625 C 1.375 -15.523438 1.539062 -15.941406 1.875 -16.265625 C 2.21875 -16.597656 2.65625 -16.765625 3.1875 -16.765625 C 3.550781 -16.765625 3.867188 -16.6875 4.140625 -16.53125 C 4.421875 -16.382812 4.640625 -16.175781 4.796875 -15.90625 C 4.953125 -15.644531 5.03125 -15.347656 5.03125 -15.015625 C 5.03125 -14.679688 4.953125 -14.378906 4.796875 -14.109375 C 4.640625 -13.847656 4.421875 -13.640625 4.140625 -13.484375 C 3.867188 -13.335938 3.550781 -13.265625 3.1875 -13.265625 Z M 1.703125 0 L 1.703125 -11.84375 L 4.6875 -11.84375 L 4.6875 0 Z M 1.703125 0 "/></g></g></g><g fill="#ffffff" fill-opacity="1"><g transform="translate(340.80206, 259.357073)"><g><path d="M 5.421875 0.21875 C 4.085938 0.21875 3.101562 -0.140625 2.46875 -0.859375 C 1.84375 -1.585938 1.53125 -2.632812 1.53125 -4 L 1.53125 -11.84375 L 4.5 -11.84375 L 4.5 -4.375 C 4.5 -3.644531 4.65625 -3.113281 4.96875 -2.78125 C 5.28125 -2.445312 5.757812 -2.28125 6.40625 -2.28125 C 7.238281 -2.28125 7.882812 -2.550781 8.34375 -3.09375 C 8.800781 -3.632812 9.03125 -4.488281 9.03125 -5.65625 L 9.03125 -11.84375 L 12 -11.84375 L 12 0 L 9.140625 0 L 9.140625 -1.734375 L 8.921875 -1.796875 C 8.535156 -1.117188 8.066406 -0.613281 7.515625 -0.28125 C 6.972656 0.0507812 6.273438 0.21875 5.421875 0.21875 Z M 5.421875 0.21875 "/></g></g></g><g fill="#ffffff" fill-opacity="1"><g transform="translate(354.506657, 259.357073)"><g><path d="M 1.703125 0 L 1.703125 -11.84375 L 4.5625 -11.84375 L 4.5625 -10.265625 L 4.796875 -10.21875 C 5.179688 -10.851562 5.628906 -11.320312 6.140625 -11.625 C 6.660156 -11.925781 7.328125 -12.078125 8.140625 -12.078125 C 9.035156 -12.078125 9.753906 -11.898438 10.296875 -11.546875 C 10.847656 -11.191406 11.25 -10.671875 11.5 -9.984375 L 11.71875 -9.984375 C 12.082031 -10.691406 12.550781 -11.21875 13.125 -11.5625 C 13.707031 -11.90625 14.425781 -12.078125 15.28125 -12.078125 C 17.738281 -12.078125 18.96875 -10.707031 18.96875 -7.96875 L 18.96875 0 L 16 0 L 16 -7.59375 C 16 -8.289062 15.859375 -8.789062 15.578125 -9.09375 C 15.304688 -9.40625 14.875 -9.5625 14.28125 -9.5625 C 12.644531 -9.5625 11.828125 -8.46875 11.828125 -6.28125 L 11.828125 0 L 8.859375 0 L 8.859375 -7.59375 C 8.859375 -8.289062 8.71875 -8.789062 8.4375 -9.09375 C 8.164062 -9.40625 7.726562 -9.5625 7.125 -9.5625 C 6.351562 -9.5625 5.753906 -9.304688 5.328125 -8.796875 C 4.898438 -8.285156 4.6875 -7.46875 4.6875 -6.34375 L 4.6875 0 Z M 1.703125 0 "/></g></g></g></svg>