<svg xmlns="http://www.w3.org/2000/svg" xmlns:xlink="http://www.w3.org/1999/xlink" width="500" zoomAndPan="magnify" viewBox="0 0 375 374.999991" height="500" preserveAspectRatio="xMidYMid meet" version="1.0"><defs><g/><clipPath id="5970b79e4d"><path d="M 121 90.292969 L 254.417969 90.292969 L 254.417969 219.292969 L 121 219.292969 Z M 121 90.292969 " clip-rule="nonzero"/></clipPath></defs><rect x="-37.5" width="450" fill="#ffffff" y="-37.499999" height="449.999989" fill-opacity="1"/><rect x="-37.5" width="450" fill="#ffffff" y="-37.499999" height="449.999989" fill-opacity="1"/><path fill="#263151" d="M 156.257812 106.210938 C 155.8125 105.890625 155.316406 105.703125 154.769531 105.648438 C 154.21875 105.59375 153.695312 105.683594 153.195312 105.910156 C 152.722656 106.113281 152.234375 106.320312 151.734375 106.539062 C 149.726562 107.417969 147.648438 108.320312 145.742188 109.578125 C 143.550781 111.015625 141.65625 112.820312 139.96875 114.417969 C 139.585938 114.765625 139.316406 115.183594 139.164062 115.675781 C 139.011719 116.171875 139 116.667969 139.121094 117.167969 C 139.257812 117.703125 139.523438 118.171875 139.90625 118.574219 C 140.292969 118.972656 140.753906 119.253906 141.289062 119.414062 C 141.796875 119.5625 142.304688 119.574219 142.820312 119.445312 C 143.332031 119.316406 143.78125 119.070312 144.15625 118.699219 L 144.28125 118.582031 C 146 116.964844 147.625 115.417969 149.523438 114.269531 C 151.101562 113.363281 152.730469 112.5625 154.414062 111.867188 C 154.921875 111.648438 155.425781 111.429688 155.925781 111.207031 C 156.386719 111.015625 156.765625 110.722656 157.0625 110.324219 C 157.359375 109.925781 157.535156 109.480469 157.582031 108.988281 C 157.621094 108.441406 157.519531 107.921875 157.285156 107.425781 C 157.050781 106.933594 156.707031 106.527344 156.257812 106.210938 Z M 156.257812 106.210938 " fill-opacity="1" fill-rule="nonzero"/><path fill="#263151" d="M 130.984375 114.421875 C 131.472656 114.496094 131.949219 114.4375 132.40625 114.246094 C 132.863281 114.058594 133.242188 113.761719 133.535156 113.363281 C 134.949219 111.566406 136.5 109.898438 138.191406 108.355469 C 139.882812 106.816406 141.6875 105.421875 143.609375 104.175781 C 145.53125 102.929688 147.542969 101.847656 149.640625 100.929688 C 151.742188 100.015625 153.902344 99.273438 156.125 98.710938 C 156.632812 98.597656 157.074219 98.359375 157.449219 98.003906 C 157.824219 97.644531 158.082031 97.21875 158.21875 96.71875 C 158.363281 96.183594 158.367188 95.644531 158.226562 95.109375 C 158.085938 94.570312 157.820312 94.101562 157.433594 93.703125 C 157.066406 93.328125 156.625 93.070312 156.117188 92.933594 C 155.609375 92.796875 155.097656 92.796875 154.589844 92.933594 C 152.082031 93.574219 149.644531 94.410156 147.273438 95.445312 C 144.902344 96.476562 142.628906 97.695312 140.457031 99.097656 C 138.285156 100.496094 136.242188 102.0625 134.324219 103.792969 C 132.410156 105.527344 130.644531 107.398438 129.035156 109.414062 C 128.6875 109.84375 128.476562 110.332031 128.394531 110.878906 C 128.316406 111.425781 128.378906 111.953125 128.585938 112.464844 C 128.785156 112.976562 129.097656 113.410156 129.527344 113.757812 C 129.953125 114.105469 130.4375 114.328125 130.984375 114.421875 Z M 130.984375 114.421875 " fill-opacity="1" fill-rule="nonzero"/><g clip-path="url(#5970b79e4d)"><path fill="#263151" d="M 247.691406 141.476562 C 248.003906 140.019531 248.40625 138.550781 248.796875 137.121094 L 248.878906 136.816406 C 250.570312 136.371094 251.929688 135.4375 252.953125 134.019531 C 254.195312 132.328125 254.355469 130.132812 253.386719 128.117188 C 253.308594 127.882812 253.199219 127.660156 253.058594 127.453125 C 252.875 127.179688 252.671875 126.917969 252.449219 126.675781 C 251.828125 125.941406 251.078125 125.378906 250.199219 124.988281 C 249.960938 124.882812 249.714844 124.8125 249.457031 124.769531 C 248.953125 124.617188 248.441406 124.53125 247.917969 124.511719 C 247.390625 124.488281 246.875 124.539062 246.359375 124.652344 C 245.847656 124.765625 245.359375 124.945312 244.894531 125.1875 C 244.429688 125.429688 244.003906 125.730469 243.617188 126.082031 C 242.894531 126.75 242.351562 127.539062 241.980469 128.445312 C 241.609375 129.355469 241.449219 130.296875 241.5 131.277344 C 241.558594 132.761719 242.097656 134.050781 243.109375 135.148438 L 243.03125 135.4375 C 242.800781 136.273438 242.570312 137.128906 242.351562 137.992188 L 242.128906 137.949219 C 241.128906 137.761719 240.136719 137.796875 239.152344 138.054688 C 237.226562 133.78125 234.207031 129.648438 230.1875 125.753906 C 230.097656 125.660156 230.003906 125.570312 229.902344 125.484375 C 227.992188 123.675781 225.972656 121.996094 223.84375 120.453125 C 214.519531 113.683594 203.074219 109.769531 190.628906 109.078125 C 190.648438 108.425781 190.660156 107.765625 190.660156 107.097656 C 191.042969 106.957031 191.417969 106.789062 191.78125 106.59375 C 195.710938 104.492188 197.171875 99.234375 194.972656 95.105469 C 194.382812 94.015625 193.589844 93.09375 192.597656 92.339844 C 191.605469 91.589844 190.503906 91.074219 189.285156 90.796875 C 188.207031 90.539062 187.121094 90.523438 186.03125 90.746094 C 184.941406 90.96875 183.949219 91.414062 183.058594 92.074219 L 182.980469 92.140625 C 182.578125 92.425781 182.203125 92.746094 181.855469 93.09375 C 181.507812 93.441406 181.191406 93.816406 180.90625 94.21875 C 180.621094 94.617188 180.371094 95.039062 180.15625 95.480469 C 179.941406 95.925781 179.765625 96.382812 179.628906 96.851562 C 179.492188 97.324219 179.394531 97.804688 179.335938 98.292969 C 179.277344 98.78125 179.261719 99.269531 179.285156 99.757812 C 179.308594 100.25 179.371094 100.734375 179.476562 101.214844 C 179.582031 101.695312 179.726562 102.164062 179.910156 102.617188 C 180.335938 103.679688 180.960938 104.605469 181.789062 105.394531 C 182.613281 106.1875 183.570312 106.773438 184.648438 107.15625 C 184.660156 107.796875 184.652344 108.441406 184.628906 109.089844 C 172.234375 109.800781 160.824219 113.714844 151.546875 120.460938 C 149.417969 122.003906 147.402344 123.679688 145.496094 125.484375 C 145.382812 125.570312 145.273438 125.664062 145.175781 125.765625 C 141.15625 129.648438 138.148438 133.777344 136.242188 138.042969 C 135.917969 137.960938 135.589844 137.902344 135.253906 137.867188 C 134.503906 137.789062 133.761719 137.828125 133.027344 137.992188 C 132.808594 137.132812 132.578125 136.28125 132.351562 135.445312 L 132.269531 135.148438 C 133.277344 134.078125 133.8125 132.804688 133.871094 131.339844 C 133.925781 130.355469 133.765625 129.402344 133.402344 128.488281 C 133.035156 127.574219 132.492188 126.777344 131.773438 126.097656 C 131.390625 125.738281 130.964844 125.433594 130.496094 125.1875 C 130.03125 124.941406 129.542969 124.757812 129.027344 124.640625 C 128.511719 124.527344 127.992188 124.476562 127.464844 124.5 C 126.9375 124.523438 126.421875 124.613281 125.917969 124.769531 C 125.664062 124.808594 125.417969 124.882812 125.183594 124.984375 C 124.292969 125.375 123.53125 125.941406 122.902344 126.683594 C 122.683594 126.921875 122.484375 127.175781 122.304688 127.445312 C 122.167969 127.652344 122.058594 127.875 121.976562 128.113281 C 121.007812 130.128906 121.164062 132.328125 122.410156 134.015625 C 123.433594 135.4375 124.792969 136.371094 126.492188 136.816406 L 126.574219 137.121094 C 126.96875 138.550781 127.367188 140.023438 127.679688 141.480469 C 127.570312 141.605469 127.464844 141.734375 127.367188 141.867188 C 123.304688 147.070312 122.273438 153.988281 122.125 158.875 C 122.007812 162.582031 122.445312 166.226562 123.433594 169.800781 C 124.515625 173.703125 125.910156 178.035156 128.734375 180 C 129.632812 180.632812 130.621094 181.0625 131.695312 181.289062 C 132.773438 181.515625 133.851562 181.523438 134.929688 181.3125 C 136.367188 186.699219 139.21875 192.324219 143.246094 197.679688 C 146.238281 201.6875 149.722656 205.210938 153.707031 208.25 C 157.691406 211.289062 162.015625 213.722656 166.6875 215.554688 C 172.957031 217.980469 179.984375 219.246094 187.585938 219.289062 L 187.804688 219.289062 C 200.304688 219.21875 211.714844 215.640625 220.796875 208.945312 C 224.433594 206.269531 227.6875 203.191406 230.554688 199.710938 C 233.425781 196.230469 235.824219 192.453125 237.753906 188.382812 C 238.84375 186.105469 239.734375 183.753906 240.425781 181.328125 C 241.65625 181.5625 242.882812 181.53125 244.101562 181.226562 C 248.195312 180.074219 249.695312 176.109375 250.902344 172.941406 L 251.003906 172.671875 C 252.339844 169.109375 253.082031 165.425781 253.234375 161.625 C 253.542969 154.621094 252.058594 148.132812 249.046875 143.339844 C 248.636719 142.6875 248.1875 142.066406 247.691406 141.476562 Z M 247.691406 141.476562 " fill-opacity="1" fill-rule="nonzero"/></g><path fill="#263151" d="M 223.628906 106.542969 C 223.140625 106.332031 222.652344 106.117188 222.167969 105.898438 C 221.789062 105.730469 221.390625 105.636719 220.972656 105.628906 C 220.554688 105.617188 220.152344 105.6875 219.761719 105.835938 C 219.375 105.988281 219.03125 106.207031 218.730469 106.496094 C 218.429688 106.785156 218.199219 107.121094 218.035156 107.503906 C 217.871094 107.839844 217.78125 108.195312 217.765625 108.570312 C 217.746094 108.945312 217.804688 109.308594 217.9375 109.65625 C 218.070312 110.007812 218.265625 110.320312 218.527344 110.589844 C 218.789062 110.859375 219.089844 111.070312 219.4375 111.21875 L 220.957031 111.886719 C 222.632812 112.570312 224.257812 113.363281 225.828125 114.265625 C 227.722656 115.417969 229.347656 116.960938 231.078125 118.59375 L 231.195312 118.699219 C 231.765625 119.253906 232.449219 119.535156 233.246094 119.539062 C 234.128906 119.53125 234.867188 119.203125 235.460938 118.558594 C 235.742188 118.285156 235.953125 117.964844 236.101562 117.601562 C 236.25 117.242188 236.320312 116.863281 236.3125 116.472656 C 236.308594 116.082031 236.222656 115.707031 236.0625 115.351562 C 235.902344 114.996094 235.675781 114.683594 235.386719 114.417969 C 233.703125 112.820312 231.792969 111.011719 229.609375 109.570312 C 227.714844 108.324219 225.640625 107.417969 223.628906 106.542969 Z M 223.628906 106.542969 " fill-opacity="1" fill-rule="nonzero"/><path fill="#263151" d="M 219.238281 98.710938 C 221.460938 99.273438 223.621094 100.015625 225.722656 100.929688 C 227.820312 101.847656 229.832031 102.929688 231.753906 104.175781 C 233.675781 105.421875 235.480469 106.816406 237.171875 108.355469 C 238.863281 109.898438 240.414062 111.566406 241.828125 113.363281 C 242.121094 113.761719 242.5 114.058594 242.957031 114.246094 C 243.414062 114.4375 243.890625 114.496094 244.378906 114.421875 C 244.925781 114.328125 245.410156 114.105469 245.835938 113.757812 C 246.265625 113.410156 246.578125 112.976562 246.777344 112.464844 C 246.984375 111.953125 247.046875 111.425781 246.96875 110.878906 C 246.886719 110.332031 246.675781 109.84375 246.328125 109.414062 C 244.71875 107.398438 242.953125 105.527344 241.039062 103.792969 C 239.121094 102.0625 237.078125 100.496094 234.90625 99.097656 C 232.734375 97.695312 230.460938 96.476562 228.089844 95.445312 C 225.71875 94.410156 223.28125 93.574219 220.773438 92.933594 C 220.265625 92.796875 219.753906 92.796875 219.246094 92.933594 C 218.738281 93.070312 218.296875 93.328125 217.929688 93.703125 C 217.542969 94.101562 217.277344 94.570312 217.136719 95.109375 C 216.996094 95.644531 217 96.183594 217.144531 96.71875 C 217.28125 97.21875 217.539062 97.644531 217.914062 98.003906 C 218.289062 98.359375 218.730469 98.597656 219.238281 98.710938 Z M 219.238281 98.710938 " fill-opacity="1" fill-rule="nonzero"/><path fill="#ffffff" d="M 237.886719 169.710938 C 237.144531 165.105469 236.625 160.539062 236.722656 155.863281 C 236.808594 151.605469 237.804688 147.382812 237.789062 143.140625 C 237.769531 136.84375 233.605469 131.714844 228.441406 128.503906 C 228.375 128.460938 228.308594 128.464844 228.25 128.519531 L 226.742188 126.550781 C 226.851562 126.449219 226.824219 126.226562 226.644531 126.246094 C 224.105469 126.558594 222.253906 128.078125 220.546875 129.878906 C 218.082031 132.484375 215.808594 135.296875 213.601562 138.121094 C 209.285156 143.644531 205.332031 149.433594 201.46875 155.273438 C 198.097656 160.371094 193.074219 166.132812 193.132812 172.574219 C 193.171875 176.921875 195.152344 181.15625 197.507812 185.003906 C 194.339844 185.226562 191.148438 185.703125 187.992188 185.925781 C 187.8125 185.925781 187.632812 185.910156 187.453125 185.894531 C 184.855469 185.695312 182.273438 185.332031 179.679688 185.089844 C 179.222656 185.046875 178.761719 185.011719 178.300781 184.980469 C 179.785156 182.519531 180.96875 179.925781 181.851562 177.195312 C 182.636719 174.738281 182.742188 172.25 182.164062 169.738281 C 182.140625 169.644531 182.117188 169.546875 182.097656 169.453125 L 182.023438 169.167969 C 182 169.070312 181.972656 168.972656 181.945312 168.875 C 181.09375 165.871094 179.40625 163.050781 177.523438 160.171875 C 173.011719 153.269531 168.472656 146.371094 163.46875 139.804688 C 161.175781 136.792969 158.789062 133.847656 156.265625 131.023438 C 154.289062 128.804688 152.207031 126.621094 149.121094 126.238281 C 148.945312 126.214844 148.914062 126.4375 149.023438 126.539062 L 147.515625 128.511719 C 147.457031 128.457031 147.394531 128.449219 147.328125 128.492188 C 142.808594 131.300781 138.886719 135.636719 138.121094 141.054688 C 137.625 144.53125 138.527344 148.058594 138.828125 151.523438 C 139.148438 155.277344 139.148438 159.03125 138.828125 162.785156 C 138.5 166.605469 137.542969 170.355469 137.324219 174.179688 C 137.136719 177.449219 137.863281 180.542969 138.960938 183.605469 C 140.503906 187.824219 142.582031 191.757812 145.203125 195.410156 C 147.824219 199.0625 150.886719 202.296875 154.394531 205.117188 C 155.4375 205.957031 156.523438 206.75 157.644531 207.5 C 158.140625 207.835938 158.902344 208.554688 159.601562 208.414062 C 159.632812 208.410156 159.660156 208.402344 159.691406 208.390625 C 160.328125 208.976562 161.277344 209.289062 162.0625 209.679688 C 164.164062 210.738281 166.289062 211.761719 168.464844 212.664062 C 172.460938 214.363281 176.609375 215.488281 180.917969 216.046875 C 183.269531 216.332031 185.625 216.425781 187.992188 216.335938 C 189.046875 216.371094 190.101562 216.371094 191.160156 216.335938 C 196.210938 216.136719 201.089844 215.121094 205.796875 213.28125 C 208.128906 212.386719 210.398438 211.335938 212.648438 210.230469 C 213.730469 209.691406 215.40625 209.234375 216.273438 208.253906 C 216.695312 208.296875 217.199219 208.136719 217.875 207.695312 C 220.3125 206.09375 222.574219 204.28125 224.667969 202.253906 C 229.070312 198.023438 232.566406 193.152344 235.160156 187.640625 C 236.421875 184.945312 237.53125 182.105469 238.140625 179.191406 C 238.75 176.03125 238.394531 172.875 237.886719 169.710938 Z M 221.011719 205.203125 C 220.214844 205.910156 219.359375 206.539062 218.445312 207.085938 C 219.324219 206.492188 220.179688 205.863281 221.011719 205.203125 Z M 161.175781 209.066406 L 162.578125 209.773438 C 162.101562 209.550781 161.621094 209.316406 161.183594 209.066406 Z M 161.175781 209.066406 " fill-opacity="1" fill-rule="nonzero"/><path fill="#415584" d="M 138.660156 157.007812 C 138.566406 154.007812 138.476562 151 138.386719 147.992188 C 138.304688 145.347656 137.988281 142.265625 135.730469 140.863281 L 136.328125 140.726562 C 133.078125 141.015625 130.292969 143.296875 128.644531 146.085938 C 127 148.875 126.339844 152.117188 125.886719 155.316406 C 125.246094 159.828125 124.976562 164.507812 126.316406 168.863281 C 126.835938 170.421875 127.46875 171.9375 128.214844 173.410156 C 129.203125 175.464844 130.632812 177.769531 132.917969 177.960938 C 134.5 178.09375 136.007812 177.082031 136.871094 175.761719 C 137.734375 174.4375 138.066406 172.84375 138.289062 171.28125 C 138.949219 166.5625 138.800781 161.773438 138.660156 157.007812 Z M 138.660156 157.007812 " fill-opacity="1" fill-rule="nonzero"/><path fill="#415584" d="M 249.246094 155.316406 C 248.789062 152.117188 248.128906 148.871094 246.484375 146.085938 C 244.835938 143.300781 242.042969 141.015625 238.804688 140.726562 L 239.402344 140.863281 C 237.144531 142.265625 236.824219 145.347656 236.742188 147.992188 C 236.652344 151 236.5625 154.003906 236.472656 157.007812 C 236.328125 161.773438 236.183594 166.5625 236.859375 171.285156 C 237.082031 172.847656 237.402344 174.441406 238.273438 175.765625 C 239.148438 177.089844 240.648438 178.097656 242.226562 177.964844 C 244.515625 177.773438 245.941406 175.472656 246.933594 173.414062 C 247.679688 171.945312 248.308594 170.429688 248.828125 168.867188 C 250.15625 164.507812 249.882812 159.816406 249.246094 155.316406 Z M 249.246094 155.316406 " fill-opacity="1" fill-rule="nonzero"/><path fill="#ff6724" d="M 130.980469 130.019531 C 130.453125 128.328125 128.703125 127.425781 127.007812 127.703125 C 126.753906 127.726562 126.59375 127.863281 126.527344 128.105469 L 126.476562 128.105469 C 124.292969 127.914062 124.234375 130.609375 124.792969 132.050781 C 125.433594 133.714844 127.144531 134.71875 128.894531 134.054688 C 130.457031 133.453125 131.488281 131.644531 130.980469 130.019531 Z M 130.980469 130.019531 " fill-opacity="1" fill-rule="nonzero"/><path fill="#ff6724" d="M 250.9375 130.019531 C 250.414062 128.328125 248.660156 127.425781 246.964844 127.703125 C 246.710938 127.726562 246.550781 127.863281 246.484375 128.105469 L 246.433594 128.105469 C 244.25 127.914062 244.195312 130.609375 244.75 132.050781 C 245.390625 133.714844 247.101562 134.71875 248.851562 134.054688 C 250.414062 133.453125 251.445312 131.644531 250.9375 130.019531 Z M 250.9375 130.019531 " fill-opacity="1" fill-rule="nonzero"/><path fill="#ff6724" d="M 187.140625 93.28125 C 187.097656 92.8125 186.628906 92.386719 186.136719 92.742188 C 183.703125 94.453125 182.167969 97.292969 182.566406 100.308594 C 182.605469 100.652344 182.679688 100.984375 182.792969 101.3125 C 182.902344 101.640625 183.046875 101.953125 183.226562 102.246094 C 183.40625 102.542969 183.617188 102.816406 183.855469 103.066406 C 184.097656 103.316406 184.359375 103.535156 184.648438 103.730469 C 184.9375 103.921875 185.242188 104.082031 185.566406 104.207031 C 185.890625 104.332031 186.222656 104.421875 186.566406 104.476562 C 186.910156 104.527344 187.253906 104.546875 187.601562 104.523438 C 187.949219 104.5 188.289062 104.445312 188.621094 104.347656 C 194.703125 102.734375 193.855469 92.316406 187.140625 93.28125 Z M 187.140625 93.28125 " fill-opacity="1" fill-rule="nonzero"/><path fill="#b3b3b3" d="M 160.441406 189.140625 C 157.191406 193.5 154.003906 197.921875 152.316406 203.148438 C 152.046875 203.996094 153.382812 204.359375 153.65625 203.515625 C 155.300781 198.398438 158.449219 194.085938 161.632812 189.832031 C 162.167969 189.125 160.964844 188.433594 160.441406 189.140625 Z M 160.441406 189.140625 " fill-opacity="1" fill-rule="nonzero"/><path fill="#b3b3b3" d="M 139.082031 155.519531 C 140.042969 153.800781 141.019531 152.09375 142.019531 150.402344 C 142.617188 149.398438 142.910156 148.582031 144.144531 148.285156 C 145.160156 148.039062 146.34375 148.058594 147.390625 147.949219 C 148.269531 147.859375 148.28125 146.480469 147.390625 146.570312 C 145.742188 146.742188 143.0625 146.410156 141.945312 147.855469 C 140.351562 149.945312 139.164062 152.539062 137.882812 154.824219 C 137.453125 155.601562 138.648438 156.296875 139.082031 155.519531 Z M 139.082031 155.519531 " fill-opacity="1" fill-rule="nonzero"/><path fill="#b3b3b3" d="M 143.625 184.792969 C 144.910156 183.929688 146.175781 182.964844 147.59375 182.335938 C 149.21875 181.609375 150.878906 181.679688 152.625 181.839844 C 153.515625 181.921875 153.507812 180.542969 152.625 180.460938 C 148.785156 180.109375 146.53125 181.222656 143.523438 183.203125 C 141.5625 179.605469 140.320312 175.777344 139.800781 171.714844 C 139.691406 170.847656 138.304688 170.839844 138.414062 171.714844 C 138.980469 176.273438 140.402344 180.546875 142.671875 184.542969 C 142.773438 184.707031 142.914062 184.8125 143.097656 184.859375 C 143.28125 184.910156 143.457031 184.886719 143.625 184.792969 Z M 143.625 184.792969 " fill-opacity="1" fill-rule="nonzero"/><path fill="#b3b3b3" d="M 214.804688 189.140625 C 214.277344 188.433594 213.074219 189.121094 213.609375 189.835938 C 216.792969 194.097656 219.941406 198.40625 221.585938 203.519531 C 221.855469 204.359375 223.199219 204 222.925781 203.148438 C 221.253906 197.921875 218.0625 193.5 214.804688 189.140625 Z M 214.804688 189.140625 " fill-opacity="1" fill-rule="nonzero"/><path fill="#b3b3b3" d="M 237.355469 154.820312 C 236.078125 152.53125 234.894531 149.941406 233.292969 147.851562 C 232.1875 146.410156 229.484375 146.734375 227.847656 146.570312 C 226.960938 146.476562 226.964844 147.855469 227.847656 147.949219 C 228.808594 148.046875 229.816406 148.066406 230.765625 148.25 C 232.222656 148.519531 232.511719 149.210938 233.203125 150.40625 C 234.207031 152.097656 235.183594 153.800781 236.140625 155.523438 C 236.589844 156.296875 237.789062 155.601562 237.355469 154.820312 Z M 237.355469 154.820312 " fill-opacity="1" fill-rule="nonzero"/><path fill="#b3b3b3" d="M 235.441406 171.714844 C 234.921875 175.777344 233.679688 179.605469 231.71875 183.203125 C 228.710938 181.222656 226.457031 180.109375 222.617188 180.460938 C 221.734375 180.542969 221.726562 181.921875 222.617188 181.839844 C 224.363281 181.679688 226.011719 181.605469 227.644531 182.335938 C 229.066406 182.972656 230.335938 183.929688 231.621094 184.792969 C 231.785156 184.886719 231.960938 184.910156 232.144531 184.863281 C 232.328125 184.8125 232.472656 184.707031 232.566406 184.542969 C 234.84375 180.550781 236.261719 176.273438 236.828125 171.714844 C 236.941406 170.839844 235.550781 170.859375 235.441406 171.714844 Z M 235.441406 171.714844 " fill-opacity="1" fill-rule="nonzero"/><path fill="#b3b3b3" d="M 196.34375 206.6875 C 196.285156 206.507812 196.175781 206.375 196.011719 206.28125 C 195.847656 206.1875 195.675781 206.164062 195.492188 206.203125 C 192.972656 206.546875 190.445312 206.601562 187.910156 206.355469 C 187.824219 206.328125 187.734375 206.320312 187.640625 206.332031 L 187.597656 206.332031 C 187.503906 206.320312 187.414062 206.328125 187.328125 206.355469 C 184.792969 206.601562 182.265625 206.546875 179.746094 206.203125 C 179.5625 206.160156 179.390625 206.1875 179.226562 206.28125 C 179.0625 206.371094 178.949219 206.507812 178.894531 206.6875 L 175.941406 213.664062 C 175.59375 214.46875 176.9375 214.835938 177.28125 214.027344 L 179.988281 207.609375 C 182.527344 207.929688 185.070312 207.964844 187.621094 207.710938 C 190.171875 207.960938 192.71875 207.925781 195.261719 207.601562 C 196.164062 209.746094 197.066406 211.882812 197.96875 214.019531 C 198.3125 214.828125 199.652344 214.472656 199.304688 213.65625 Z M 196.34375 206.6875 " fill-opacity="1" fill-rule="nonzero"/><path fill="#b3b3b3" d="M 235.316406 186.042969 C 234.683594 186.507812 233.5 187.777344 232.75 187.929688 C 231.597656 188.160156 230.707031 187.101562 229.839844 186.476562 C 229.738281 186.421875 229.660156 186.441406 229.601562 186.539062 C 227.398438 190.171875 225.042969 193.691406 221.449219 196.125 C 221.347656 196.183594 221.328125 196.261719 221.386719 196.359375 C 222.582031 197.957031 223.453125 199.710938 223.992188 201.628906 C 224.011719 201.695312 224.058594 201.734375 224.128906 201.746094 C 224.195312 201.757812 224.253906 201.738281 224.296875 201.679688 L 224.394531 201.753906 C 224.320312 201.84375 224.328125 201.925781 224.417969 202 C 224.507812 202.074219 224.589844 202.066406 224.664062 201.976562 C 227.058594 199.6875 229.160156 197.160156 230.96875 194.390625 C 232.621094 191.847656 234.628906 189.125 235.574219 186.242188 C 235.601562 186.105469 235.4375 185.945312 235.316406 186.042969 Z M 235.316406 186.042969 " fill-opacity="1" fill-rule="nonzero"/><path fill="#b3b3b3" d="M 232.015625 144.160156 C 232.488281 144.597656 233.308594 144.773438 233.875 145.109375 C 234.789062 145.660156 235.613281 146.324219 236.347656 147.09375 C 236.394531 147.140625 236.449219 147.15625 236.515625 147.140625 C 236.578125 147.121094 236.621094 147.082031 236.636719 147.019531 C 236.988281 144.84375 237.769531 142.550781 236.871094 140.429688 C 235.695312 137.640625 233.808594 135.042969 231.976562 132.640625 C 231.898438 132.53125 231.808594 132.519531 231.703125 132.601562 L 231.203125 132.011719 C 231.203125 131.9375 231.203125 131.863281 231.191406 131.792969 C 231.171875 131.570312 230.828125 131.570312 230.84375 131.792969 C 231.078125 135.519531 231.113281 139.316406 231.558594 143.023438 C 231.644531 143.667969 231.59375 143.769531 232.015625 144.160156 Z M 232.015625 144.160156 " fill-opacity="1" fill-rule="nonzero"/><path fill="#b3b3b3" d="M 153.9375 196.125 C 150.355469 193.703125 147.984375 190.171875 145.785156 186.53125 C 145.726562 186.433594 145.648438 186.414062 145.546875 186.46875 C 144.679688 187.097656 143.792969 188.15625 142.636719 187.925781 C 141.886719 187.777344 140.703125 186.507812 140.070312 186.039062 C 139.949219 185.949219 139.773438 186.097656 139.816406 186.234375 C 140.773438 189.125 142.769531 191.84375 144.417969 194.382812 C 146.230469 197.152344 148.332031 199.679688 150.726562 201.972656 C 150.800781 202.0625 150.882812 202.070312 150.972656 201.996094 C 151.0625 201.921875 151.070312 201.839844 150.996094 201.75 L 151.09375 201.675781 C 151.136719 201.730469 151.195312 201.753906 151.261719 201.738281 C 151.332031 201.726562 151.378906 201.6875 151.398438 201.621094 C 151.9375 199.707031 152.804688 197.949219 154.003906 196.355469 C 154.054688 196.257812 154.035156 196.183594 153.9375 196.125 Z M 153.9375 196.125 " fill-opacity="1" fill-rule="nonzero"/><path fill="#b3b3b3" d="M 139.039062 147.09375 C 139.691406 146.410156 140.414062 145.808594 141.207031 145.289062 C 141.769531 144.933594 142.625 144.75 143.128906 144.324219 C 143.792969 143.785156 143.714844 143.933594 143.820312 143.023438 C 144.25 139.316406 144.296875 135.515625 144.535156 131.792969 C 144.550781 131.570312 144.203125 131.570312 144.1875 131.792969 C 144.1875 131.863281 144.1875 131.9375 144.1875 132.011719 L 143.667969 132.609375 C 143.566406 132.527344 143.476562 132.539062 143.398438 132.648438 C 141.578125 135.035156 139.691406 137.640625 138.515625 140.421875 C 137.617188 142.542969 138.398438 144.832031 138.75 147.011719 C 138.765625 147.074219 138.804688 147.117188 138.871094 147.136719 C 138.933594 147.15625 138.992188 147.140625 139.039062 147.09375 Z M 139.039062 147.09375 " fill-opacity="1" fill-rule="nonzero"/><path fill="#415584" d="M 187.824219 111.367188 L 187.824219 111.324219 L 187.625 111.34375 L 187.410156 111.328125 L 187.410156 111.375 C 184.054688 111.757812 160.519531 114.941406 147.234375 128.839844 L 148.636719 166.457031 C 148.636719 166.457031 148.929688 184.597656 152.625 188.125 C 156.320312 191.648438 175.757812 196.742188 187.363281 196.855469 L 187.875 196.855469 C 199.480469 196.742188 218.953125 191.609375 222.613281 188.125 C 226.269531 184.636719 226.601562 166.457031 226.601562 166.457031 L 228.003906 128.839844 C 214.71875 114.941406 191.183594 111.757812 187.824219 111.367188 Z M 187.824219 111.367188 " fill-opacity="1" fill-rule="nonzero"/><path fill="#263151" d="M 221.6875 142.628906 C 221.671875 141.804688 221.550781 140.996094 221.324219 140.203125 C 220.746094 138.464844 219.191406 137.1875 217.492188 136.496094 C 215.789062 135.800781 213.933594 135.601562 212.101562 135.417969 C 211.550781 135.316406 211 135.339844 210.460938 135.488281 C 209.507812 135.828125 209.011719 136.835938 208.605469 137.761719 C 206.765625 141.929688 204.777344 146.097656 201.871094 149.613281 C 198.964844 153.132812 195.027344 155.988281 190.523438 156.78125 C 189.519531 156.957031 185.71875 156.957031 184.71875 156.78125 C 180.210938 155.988281 176.273438 153.132812 173.367188 149.613281 C 170.460938 146.097656 168.472656 141.929688 166.632812 137.761719 C 166.226562 136.84375 165.730469 135.828125 164.78125 135.488281 C 164.238281 135.339844 163.691406 135.316406 163.136719 135.417969 C 161.304688 135.605469 159.449219 135.800781 157.75 136.496094 C 156.046875 137.1875 154.5 138.464844 153.914062 140.203125 C 153.6875 140.996094 153.566406 141.804688 153.550781 142.628906 C 152.921875 153.542969 153.132812 164.441406 154.183594 175.324219 C 154.433594 177.910156 154.75 180.558594 155.921875 182.878906 C 157.097656 185.203125 159.3125 187.171875 161.921875 187.34375 C 163.621094 187.71875 178.851562 191.597656 184.328125 191.734375 C 185.441406 191.765625 189.796875 191.765625 190.910156 191.734375 C 196.386719 191.597656 211.617188 187.71875 213.316406 187.34375 C 215.925781 187.171875 218.140625 185.191406 219.316406 182.878906 C 220.488281 180.566406 220.804688 177.910156 221.054688 175.324219 C 222.105469 164.441406 222.316406 153.542969 221.6875 142.628906 Z M 221.6875 142.628906 " fill-opacity="1" fill-rule="nonzero"/><path fill="#263151" d="M 246.277344 173.53125 C 246.171875 173.597656 246.070312 173.667969 245.976562 173.742188 C 245.039062 174.023438 244.636719 173.730469 244.765625 172.863281 C 244.726562 172.460938 244.714844 172.054688 244.730469 171.648438 C 244.777344 171.183594 244.820312 170.71875 244.851562 170.253906 L 244.851562 170.226562 C 245.148438 165.742188 244.5625 161.234375 243.484375 156.8125 C 243.460938 156.730469 243.40625 156.6875 243.316406 156.6875 C 243.230469 156.6875 243.175781 156.730469 243.152344 156.8125 C 242.746094 159.042969 242.265625 161.253906 241.671875 163.441406 C 241.644531 163.53125 241.625 163.636719 241.601562 163.75 C 241.253906 164.210938 240.824219 164.359375 240.246094 163.550781 C 240.070312 163.265625 239.96875 162.953125 239.9375 162.617188 C 239.910156 162.265625 239.890625 161.917969 239.871094 161.570312 C 239.871094 161.261719 239.851562 160.953125 239.820312 160.644531 C 239.808594 160.40625 239.792969 160.175781 239.769531 159.964844 C 239.425781 156.65625 239.148438 153.347656 238.6875 150.0625 C 238.519531 147.515625 238.722656 144.996094 239.289062 142.507812 C 239.339844 142.292969 239.015625 142.199219 238.953125 142.414062 C 238.832031 142.914062 238.734375 143.414062 238.648438 143.914062 L 238.457031 144.496094 C 238.410156 144.476562 238.367188 144.480469 238.320312 144.5 C 238.277344 144.523438 238.25 144.558594 238.238281 144.609375 C 238.117188 145.101562 238.015625 145.613281 237.929688 146.128906 C 237.875 146.117188 237.824219 146.128906 237.777344 146.160156 C 237.734375 146.191406 237.707031 146.234375 237.699219 146.292969 C 236.800781 155.667969 236.84375 165.042969 237.820312 174.414062 C 238.089844 176.808594 238.832031 178.292969 241.449219 178.238281 C 242.226562 178.222656 242.667969 178.238281 243.128906 177.609375 C 243.21875 177.480469 243.292969 177.34375 243.347656 177.199219 C 243.386719 177.253906 243.4375 177.296875 243.496094 177.332031 C 243.964844 177.566406 244.734375 176.632812 244.992188 176.375 C 245.734375 175.644531 246.507812 174.761719 246.539062 173.683594 C 246.535156 173.617188 246.507812 173.566406 246.449219 173.535156 C 246.394531 173.5 246.335938 173.5 246.277344 173.53125 Z M 246.277344 173.53125 " fill-opacity="1" fill-rule="nonzero"/><path fill="#263151" d="M 137.863281 146.285156 C 137.84375 146.148438 137.765625 146.09375 137.632812 146.121094 C 137.546875 145.605469 137.449219 145.09375 137.328125 144.601562 C 137.316406 144.554688 137.289062 144.519531 137.242188 144.496094 C 137.199219 144.472656 137.152344 144.472656 137.105469 144.492188 L 136.917969 143.90625 C 136.832031 143.410156 136.734375 142.90625 136.613281 142.410156 C 136.558594 142.195312 136.222656 142.285156 136.277344 142.5 C 136.839844 144.988281 137.039062 147.5 136.875 150.042969 C 136.40625 153.328125 136.128906 156.640625 135.792969 159.949219 C 135.671875 161.109375 135.539062 162.269531 135.386719 163.425781 C 135.363281 163.464844 135.339844 163.503906 135.316406 163.542969 C 134.773438 164.324219 134.34375 164.207031 134 163.773438 C 133.359375 161.476562 132.847656 159.148438 132.421875 156.800781 C 132.398438 156.71875 132.339844 156.679688 132.253906 156.679688 C 132.167969 156.679688 132.113281 156.71875 132.085938 156.800781 C 131.003906 161.226562 130.429688 165.730469 130.734375 170.214844 L 130.734375 170.234375 C 130.765625 170.699219 130.808594 171.160156 130.859375 171.625 C 130.875 172.03125 130.859375 172.4375 130.816406 172.84375 C 130.949219 173.707031 130.546875 174 129.613281 173.722656 C 129.515625 173.644531 129.414062 173.574219 129.308594 173.511719 C 129.25 173.472656 129.1875 173.46875 129.125 173.503906 C 129.0625 173.535156 129.035156 173.589844 129.035156 173.660156 C 129.0625 174.675781 129.746094 175.484375 130.429688 176.191406 C 130.679688 176.460938 131.574219 177.554688 132.078125 177.304688 C 132.136719 177.269531 132.1875 177.226562 132.226562 177.175781 C 132.28125 177.324219 132.355469 177.464844 132.449219 177.59375 C 132.914062 178.214844 133.355469 178.207031 134.128906 178.226562 C 136.734375 178.277344 137.503906 176.792969 137.757812 174.398438 C 138.730469 165.03125 138.765625 155.660156 137.863281 146.285156 Z M 137.863281 146.285156 " fill-opacity="1" fill-rule="nonzero"/><path fill="#263151" d="M 164.757812 130.992188 C 164.625 130.1875 164.554688 128.03125 163.730469 127.582031 C 162.964844 127.15625 160.160156 128.582031 159.410156 128.839844 C 157.832031 129.378906 155.351562 129.851562 154.03125 130.875 C 153.136719 131.570312 153.316406 132.648438 153.414062 133.734375 C 153.375 134.035156 153.390625 134.328125 153.453125 134.621094 C 153.476562 134.707031 153.53125 134.75 153.621094 134.75 C 155.207031 134.90625 157.230469 133.355469 158.765625 132.957031 C 160.777344 132.417969 162.789062 132.078125 164.683594 131.1875 C 164.757812 131.140625 164.78125 131.078125 164.757812 130.992188 Z M 164.757812 130.992188 " fill-opacity="1" fill-rule="nonzero"/><path fill="#263151" d="M 153.496094 129.316406 C 154.4375 128.816406 155.414062 128.394531 156.425781 128.054688 L 157.980469 127.558594 C 159.789062 127.019531 161.644531 126.566406 163.328125 126.03125 C 163.441406 126 163.480469 125.929688 163.449219 125.820312 C 163.191406 125.140625 162.878906 124.488281 162.503906 123.867188 C 162.445312 123.773438 162.367188 123.753906 162.269531 123.804688 C 159.726562 124.957031 157.179688 126.109375 154.664062 127.324219 C 153.898438 127.695312 152.800781 128.070312 153.328125 129.015625 C 153.125 129.128906 153.296875 129.425781 153.496094 129.316406 Z M 153.496094 129.316406 " fill-opacity="1" fill-rule="nonzero"/><path fill="#263151" d="M 222.007812 131.027344 C 221.515625 130.535156 220.480469 130.351562 219.84375 130.109375 C 218.703125 129.664062 217.554688 129.242188 216.398438 128.84375 C 215.601562 128.574219 212.878906 127.167969 212.101562 127.578125 C 211.253906 128.015625 211.179688 130.234375 211.050781 131 C 211.027344 131.082031 211.054688 131.148438 211.128906 131.191406 C 213.027344 132.085938 215.039062 132.433594 217.050781 132.960938 C 218.589844 133.363281 220.585938 134.914062 222.195312 134.753906 C 222.285156 134.753906 222.339844 134.710938 222.363281 134.628906 C 222.425781 134.339844 222.4375 134.050781 222.402344 133.757812 C 222.492188 132.800781 222.652344 131.675781 222.007812 131.027344 Z M 222.007812 131.027344 " fill-opacity="1" fill-rule="nonzero"/><path fill="#263151" d="M 222.492188 129.023438 C 223.03125 128.078125 221.917969 127.695312 221.15625 127.328125 C 218.636719 126.117188 216.097656 124.960938 213.554688 123.808594 C 213.457031 123.757812 213.375 123.777344 213.316406 123.871094 C 212.945312 124.496094 212.628906 125.148438 212.371094 125.824219 C 212.34375 125.933594 212.382812 126.003906 212.492188 126.039062 C 214.179688 126.574219 216.035156 127.019531 217.84375 127.5625 L 219.394531 128.058594 C 220.40625 128.402344 221.382812 128.824219 222.324219 129.324219 C 222.511719 129.425781 222.6875 129.128906 222.492188 129.023438 Z M 222.492188 129.023438 " fill-opacity="1" fill-rule="nonzero"/><path fill="#ffffff" d="M 133.011719 141.117188 C 125.054688 145.996094 122.878906 155.664062 125.160156 164.253906 C 125.1875 164.382812 125.257812 164.484375 125.367188 164.5625 C 125.476562 164.636719 125.597656 164.667969 125.726562 164.652344 C 125.695312 165.308594 125.679688 165.964844 125.683594 166.625 C 125.683594 167.351562 126.820312 167.355469 126.820312 166.625 C 126.765625 161.722656 127.757812 157.035156 129.796875 152.570312 C 130.644531 150.738281 131.804688 149.066406 132.664062 147.253906 C 133.523438 145.4375 133.808594 143.578125 133.851562 141.597656 C 133.847656 141.496094 133.820312 141.40625 133.769531 141.324219 C 133.71875 141.238281 133.652344 141.171875 133.566406 141.125 C 133.480469 141.074219 133.386719 141.050781 133.289062 141.046875 C 133.191406 141.046875 133.097656 141.070312 133.011719 141.117188 Z M 133.011719 141.117188 " fill-opacity="1" fill-rule="nonzero"/><path fill="#ffffff" d="M 242.46875 141.117188 C 242.382812 141.066406 242.285156 141.042969 242.1875 141.042969 C 242.085938 141.042969 241.992188 141.066406 241.902344 141.117188 C 241.816406 141.167969 241.746094 141.238281 241.695312 141.324219 C 241.644531 141.410156 241.617188 141.503906 241.617188 141.605469 C 241.660156 143.578125 241.960938 145.449219 242.808594 147.261719 C 243.65625 149.070312 244.824219 150.746094 245.675781 152.578125 C 247.710938 157.042969 248.703125 161.730469 248.652344 166.632812 C 248.652344 167.363281 249.78125 167.359375 249.785156 166.632812 C 249.785156 165.976562 249.773438 165.316406 249.742188 164.660156 C 249.871094 164.675781 249.992188 164.644531 250.101562 164.570312 C 250.210938 164.496094 250.28125 164.390625 250.308594 164.261719 C 252.601562 155.671875 250.429688 145.996094 242.46875 141.117188 Z M 242.46875 141.117188 " fill-opacity="1" fill-rule="nonzero"/><path fill="#ffffff" d="M 166.058594 119.328125 C 165.402344 117.828125 164.9375 115.910156 162.953125 116.597656 C 160.5625 117.40625 158.214844 118.902344 156.074219 120.214844 C 152.421875 122.457031 146.898438 125.332031 146.945312 130.195312 C 146.945312 130.355469 147.003906 130.488281 147.121094 130.59375 C 147.238281 130.703125 147.378906 130.75 147.535156 130.734375 C 147.449219 130.839844 147.363281 130.941406 147.265625 131.046875 C 146.808594 131.609375 147.605469 132.410156 148.078125 131.855469 C 150.304688 129.089844 152.921875 126.753906 155.929688 124.851562 C 159.027344 122.914062 162.503906 121.566406 165.855469 120.101562 C 166.15625 119.964844 166.167969 119.582031 166.058594 119.328125 Z M 166.058594 119.328125 " fill-opacity="1" fill-rule="nonzero"/><path fill="#ffffff" d="M 228.625 130.1875 C 228.671875 125.308594 223.152344 122.445312 219.496094 120.203125 C 217.359375 118.890625 215.011719 117.410156 212.621094 116.589844 C 210.636719 115.90625 210.183594 117.820312 209.515625 119.316406 C 209.402344 119.570312 209.417969 119.957031 209.71875 120.089844 C 213.066406 121.566406 216.542969 122.894531 219.652344 124.84375 C 222.660156 126.746094 225.277344 129.082031 227.503906 131.847656 C 227.964844 132.414062 228.765625 131.609375 228.316406 131.039062 L 228.046875 130.726562 C 228.203125 130.738281 228.339844 130.691406 228.457031 130.582031 C 228.570312 130.476562 228.628906 130.34375 228.625 130.1875 Z M 228.625 130.1875 " fill-opacity="1" fill-rule="nonzero"/><path fill="#ffffff" d="M 209.882812 115.839844 C 203.882812 114.308594 197.804688 113.191406 191.652344 112.480469 C 191.566406 112.273438 191.433594 112.113281 191.242188 111.996094 C 190.9375 111.859375 190.621094 111.820312 190.292969 111.871094 C 189.410156 111.929688 188.523438 112.003906 187.640625 112.078125 C 186.753906 112.003906 185.871094 111.929688 184.984375 111.871094 C 184.65625 111.820312 184.34375 111.859375 184.039062 111.996094 C 183.847656 112.113281 183.710938 112.273438 183.628906 112.480469 C 177.476562 113.191406 171.398438 114.308594 165.398438 115.839844 L 164.523438 116.078125 C 165.644531 120.410156 168.234375 124.203125 169.9375 128.34375 C 171.34375 131.777344 172.125 135.425781 173.230469 138.96875 C 174.339844 142.507812 175.828125 146.03125 178.375 148.730469 C 180.195312 150.636719 182.359375 152 184.875 152.816406 C 185.722656 153.089844 186.585938 153.292969 187.46875 153.414062 C 187.515625 153.429688 187.5625 153.429688 187.609375 153.414062 C 188.589844 153.285156 189.550781 153.074219 190.496094 152.78125 C 192.96875 151.96875 195.105469 150.621094 196.902344 148.742188 C 199.457031 146.046875 200.945312 142.519531 202.046875 138.980469 C 203.148438 135.441406 203.941406 131.792969 205.34375 128.355469 C 207.039062 124.214844 209.628906 120.421875 210.757812 116.09375 Z M 209.882812 115.839844 " fill-opacity="1" fill-rule="nonzero"/><path fill="#263151" d="M 153.859375 107.367188 C 151.425781 108.460938 148.875 109.445312 146.636719 110.917969 C 144.613281 112.265625 142.847656 113.925781 141.085938 115.582031 C 139.789062 116.8125 141.753906 118.757812 143.042969 117.535156 C 144.8125 115.859375 146.589844 114.160156 148.695312 112.890625 C 150.800781 111.625 153.0625 110.738281 155.269531 109.75 C 156.882812 109.019531 155.476562 106.640625 153.859375 107.367188 Z M 153.859375 107.367188 " fill-opacity="1" fill-rule="nonzero"/><path fill="#263151" d="M 132.261719 112.363281 C 133.734375 110.5 135.351562 108.769531 137.109375 107.171875 C 138.863281 105.570312 140.742188 104.125 142.738281 102.832031 C 144.734375 101.539062 146.820312 100.414062 149 99.460938 C 151.183594 98.511719 153.425781 97.738281 155.734375 97.152344 C 157.460938 96.714844 156.730469 94.050781 154.996094 94.492188 C 152.574219 95.105469 150.214844 95.910156 147.921875 96.910156 C 145.632812 97.90625 143.433594 99.082031 141.335938 100.433594 C 139.238281 101.789062 137.261719 103.300781 135.410156 104.976562 C 133.558594 106.652344 131.855469 108.464844 130.304688 110.414062 C 129.203125 111.792969 131.15625 113.753906 132.261719 112.363281 Z M 132.261719 112.363281 " fill-opacity="1" fill-rule="nonzero"/><path fill="#263151" d="M 251.648438 133.070312 C 252.621094 131.746094 252.570312 130.089844 251.882812 128.722656 C 251.84375 128.585938 251.785156 128.457031 251.710938 128.335938 C 251.5625 128.125 251.40625 127.925781 251.230469 127.734375 C 250.769531 127.179688 250.207031 126.753906 249.546875 126.460938 C 249.402344 126.398438 249.253906 126.359375 249.097656 126.34375 C 248.335938 126.085938 247.5625 126.039062 246.773438 126.207031 C 245.984375 126.375 245.296875 126.730469 244.707031 127.277344 C 242.609375 129.160156 242.503906 132.800781 244.828125 134.527344 C 244.863281 134.550781 244.898438 134.570312 244.933594 134.59375 C 244.441406 136.421875 243.917969 138.25 243.507812 140.097656 C 242.976562 139.832031 242.417969 139.640625 241.832031 139.53125 C 240.5625 139.277344 239.375 139.492188 238.273438 140.167969 C 236.332031 135.144531 232.953125 130.671875 229.007812 126.871094 C 228.949219 126.804688 228.886719 126.746094 228.816406 126.691406 C 226.945312 124.910156 224.957031 123.265625 222.863281 121.75 C 213.015625 114.582031 201.054688 111.007812 188.933594 110.617188 C 189.042969 109.070312 189.0625 107.523438 188.996094 105.976562 C 188.996094 105.949219 188.996094 105.925781 188.996094 105.898438 C 189.707031 105.757812 190.378906 105.519531 191.015625 105.175781 C 194.296875 103.421875 195.242188 99.042969 193.542969 95.859375 C 191.742188 92.5 187.21875 90.976562 184.019531 93.355469 C 184.003906 93.355469 183.992188 93.378906 183.976562 93.390625 C 183.308594 93.859375 182.730469 94.425781 182.253906 95.085938 C 181.773438 95.75 181.417969 96.472656 181.183594 97.253906 C 180.949219 98.035156 180.851562 98.835938 180.890625 99.648438 C 180.925781 100.464844 181.097656 101.253906 181.402344 102.011719 C 181.816406 103.03125 182.453125 103.886719 183.308594 104.582031 C 184.167969 105.277344 185.140625 105.722656 186.226562 105.921875 C 186.226562 105.941406 186.226562 105.964844 186.226562 105.984375 C 186.292969 107.535156 186.273438 109.082031 186.164062 110.628906 C 174.128906 111.0625 162.273438 114.636719 152.484375 121.75 C 150.398438 123.265625 148.417969 124.910156 146.546875 126.683594 C 146.472656 126.738281 146.40625 126.800781 146.347656 126.871094 C 142.414062 130.671875 139.039062 135.132812 137.101562 140.152344 C 136.476562 139.777344 135.800781 139.550781 135.074219 139.480469 C 133.9375 139.371094 132.867188 139.582031 131.855469 140.113281 C 131.445312 138.265625 130.921875 136.433594 130.429688 134.605469 C 130.464844 134.582031 130.5 134.5625 130.535156 134.539062 C 132.878906 132.796875 132.730469 129.207031 130.65625 127.289062 C 130.070312 126.734375 129.378906 126.375 128.589844 126.210938 C 127.800781 126.042969 127.023438 126.089844 126.261719 126.355469 C 126.105469 126.371094 125.960938 126.410156 125.816406 126.472656 C 125.152344 126.769531 124.589844 127.195312 124.125 127.757812 C 123.953125 127.941406 123.796875 128.140625 123.652344 128.347656 C 123.578125 128.46875 123.519531 128.597656 123.480469 128.734375 C 122.792969 130.097656 122.742188 131.757812 123.714844 133.082031 C 124.691406 134.40625 126.21875 135.332031 127.777344 135.402344 C 128.363281 137.574219 129.003906 139.75 129.421875 141.964844 C 129.144531 142.246094 128.882812 142.539062 128.636719 142.847656 C 125.171875 147.289062 123.898438 153.433594 123.730469 158.925781 C 123.625 162.46875 124.042969 165.953125 124.984375 169.375 C 125.777344 172.230469 127.109375 176.914062 129.652344 178.683594 C 131.617188 180.054688 133.984375 180.164062 136.101562 179.285156 C 137.453125 185.589844 140.703125 191.632812 144.535156 196.714844 C 147.433594 200.605469 150.816406 204.023438 154.683594 206.972656 C 158.546875 209.917969 162.746094 212.28125 167.277344 214.054688 C 173.742188 216.566406 180.664062 217.640625 187.582031 217.679688 C 187.621094 217.679688 187.652344 217.679688 187.6875 217.679688 C 187.722656 217.679688 187.753906 217.679688 187.792969 217.679688 C 199.246094 217.613281 210.558594 214.488281 219.828125 207.652344 C 223.355469 205.054688 226.511719 202.066406 229.296875 198.691406 C 232.082031 195.3125 234.410156 191.652344 236.28125 187.699219 C 237.582031 185.027344 238.574219 182.242188 239.261719 179.351562 C 240.710938 179.917969 242.476562 180.027344 243.664062 179.691406 C 247.078125 178.726562 248.355469 175.109375 249.5 172.113281 C 250.773438 168.707031 251.480469 165.1875 251.625 161.558594 C 251.894531 155.714844 250.847656 149.234375 247.683594 144.199219 C 247.183594 143.394531 246.613281 142.648438 245.964844 141.953125 C 246.382812 139.746094 247.027344 137.570312 247.609375 135.398438 C 249.140625 135.320312 250.652344 134.425781 251.648438 133.070312 Z M 248.210938 128.875 C 249.125 129.292969 249.964844 130.195312 249.496094 131.296875 C 249.097656 132.234375 247.730469 132.960938 246.777344 132.5 C 244.707031 131.5 246.496094 128.464844 248.210938 128.875 Z M 184.300781 101.632812 C 183.21875 99.945312 183.574219 97.242188 185.113281 95.902344 C 185.21875 95.859375 185.316406 95.804688 185.410156 95.734375 C 189.582031 92.632812 194.09375 99.675781 190.089844 102.503906 C 188.308594 103.769531 185.515625 103.519531 184.300781 101.632812 Z M 125.921875 131.429688 C 125.347656 130.316406 126.191406 129.316406 127.15625 128.871094 C 128.867188 128.46875 130.648438 131.503906 128.585938 132.5 C 127.667969 132.945312 126.371094 132.308594 125.921875 131.429688 Z M 128.820312 172.046875 C 127.574219 168.960938 126.824219 165.753906 126.566406 162.4375 C 126.3125 159.117188 126.566406 155.839844 127.324219 152.597656 C 127.882812 150.21875 128.691406 147.863281 129.972656 145.769531 C 130.445312 144.949219 131.019531 144.210938 131.699219 143.554688 C 131.820312 143.445312 131.949219 143.34375 132.085938 143.253906 C 131.542969 145.300781 131.324219 150.710938 131.929688 150.796875 C 132.675781 150.894531 134.503906 144.683594 135.226562 142.347656 C 135.492188 142.351562 135.742188 142.417969 135.972656 142.558594 C 136.203125 142.695312 136.382812 142.878906 136.511719 143.117188 C 136.554688 143.550781 136.597656 143.984375 136.640625 144.417969 C 136.613281 144.632812 136.636719 144.84375 136.699219 145.050781 C 137.332031 151.574219 137.523438 158.113281 137.265625 164.664062 C 137.183594 166.464844 137.054688 168.269531 136.871094 170.066406 C 136.753906 171.171875 136.621094 172.28125 136.445312 173.382812 C 136.339844 174.078125 136.355469 175.457031 135.960938 176.050781 C 135.644531 176.523438 134.855469 176.859375 134.066406 177.019531 C 133.226562 173.816406 132.023438 165.941406 131.328125 165.9375 C 130.636719 165.9375 130.347656 173.183594 130.988281 176.074219 C 129.941406 174.980469 129.320312 173.261719 128.820312 172.046875 Z M 207.089844 211.503906 C 200.914062 213.855469 194.382812 214.882812 187.789062 214.921875 C 187.75 214.921875 187.71875 214.921875 187.679688 214.921875 C 187.644531 214.921875 187.613281 214.921875 187.574219 214.921875 C 176.574219 214.859375 165.828125 211.839844 156.9375 205.269531 C 153.589844 202.769531 150.597656 199.902344 147.964844 196.664062 C 145.332031 193.421875 143.140625 189.914062 141.386719 186.128906 C 140.03125 183.292969 139.078125 180.332031 138.515625 177.242188 C 139.488281 175.28125 139.398438 172.203125 139.597656 170.429688 C 140.601562 161.140625 140.191406 151.695312 139.21875 142.414062 C 140.546875 138.28125 143.007812 134.496094 145.988281 131.167969 C 145.855469 142.492188 147.828125 166.402344 148.496094 166.433594 C 149.21875 166.46875 148.566406 140.574219 148.804688 128.304688 C 153.25 124.152344 158.261719 120.855469 163.835938 118.402344 C 166.648438 126.480469 173.964844 143.453125 174.625 143.296875 C 175.285156 143.140625 169.242188 125.515625 166.390625 117.339844 C 173.246094 114.746094 180.34375 113.414062 187.679688 113.347656 C 195.019531 113.417969 202.113281 114.753906 208.96875 117.355469 C 206.117188 125.542969 200.019531 143.117188 200.691406 143.300781 C 201.363281 143.484375 208.710938 126.492188 211.519531 118.417969 C 217.09375 120.871094 222.105469 124.171875 226.550781 128.320312 C 226.789062 140.597656 226.011719 166.40625 226.671875 166.449219 C 227.398438 166.496094 229.5 142.507812 229.367188 131.183594 C 232.347656 134.511719 234.808594 138.296875 236.136719 142.433594 C 235.269531 150.707031 234.882812 159.085938 235.484375 167.394531 C 235.613281 169.15625 235.792969 170.910156 236.023438 172.664062 C 236.21875 174.058594 236.25 175.855469 236.835938 177.21875 C 234.308594 192.53125 221.253906 206.09375 207.089844 211.503906 Z M 248.039062 152.597656 C 248.796875 155.839844 249.050781 159.117188 248.796875 162.4375 C 248.539062 165.757812 247.789062 168.960938 246.539062 172.046875 C 246.046875 173.25 245.414062 174.964844 244.390625 176.058594 C 245.03125 173.171875 244.636719 165.875 243.894531 165.945312 C 243.253906 166.007812 242.148438 173.816406 241.308594 177.019531 C 240.496094 176.871094 239.71875 176.523438 239.402344 176.050781 C 238.589844 174.824219 238.6875 171.855469 238.53125 170.441406 C 238.328125 168.519531 238.1875 166.59375 238.097656 164.664062 C 237.839844 158.109375 238.027344 151.566406 238.65625 145.035156 C 238.722656 144.832031 238.742188 144.621094 238.71875 144.410156 C 238.757812 143.972656 238.804688 143.539062 238.847656 143.101562 C 238.976562 142.867188 239.15625 142.683594 239.386719 142.546875 C 239.617188 142.410156 239.867188 142.339844 240.136719 142.339844 C 240.859375 144.675781 242.6875 150.886719 243.433594 150.789062 C 244.039062 150.710938 243.816406 145.300781 243.277344 143.246094 C 243.414062 143.335938 243.542969 143.4375 243.664062 143.546875 C 244.34375 144.203125 244.917969 144.941406 245.390625 145.761719 C 246.667969 147.863281 247.480469 150.21875 248.039062 152.597656 Z M 248.039062 152.597656 " fill-opacity="1" fill-rule="nonzero"/><path fill="#263151" d="M 221.503906 107.367188 C 219.878906 106.644531 218.476562 109.019531 220.101562 109.75 C 222.308594 110.738281 224.605469 111.632812 226.675781 112.890625 C 228.746094 114.148438 230.550781 115.855469 232.320312 117.535156 C 233.609375 118.757812 235.566406 116.8125 234.277344 115.582031 C 232.523438 113.925781 230.757812 112.25 228.726562 110.917969 C 226.488281 109.445312 223.9375 108.460938 221.503906 107.367188 Z M 221.503906 107.367188 " fill-opacity="1" fill-rule="nonzero"/><path fill="#263151" d="M 219.628906 97.152344 C 221.9375 97.742188 224.179688 98.511719 226.359375 99.464844 C 228.539062 100.417969 230.625 101.539062 232.621094 102.832031 C 234.617188 104.125 236.492188 105.574219 238.25 107.171875 C 240.003906 108.769531 241.621094 110.5 243.089844 112.363281 C 244.195312 113.757812 246.148438 111.792969 245.050781 110.414062 C 243.5 108.464844 241.796875 106.652344 239.945312 104.976562 C 238.097656 103.304688 236.121094 101.789062 234.023438 100.4375 C 231.925781 99.082031 229.730469 97.90625 227.4375 96.910156 C 225.148438 95.914062 222.789062 95.105469 220.367188 94.492188 C 218.644531 94.054688 217.90625 96.710938 219.628906 97.152344 Z M 219.628906 97.152344 " fill-opacity="1" fill-rule="nonzero"/><path fill="#9dfff2" d="M 172.289062 164.859375 C 172.289062 165.605469 172.242188 166.347656 172.144531 167.078125 C 172.046875 167.8125 171.902344 168.523438 171.710938 169.214844 C 171.523438 169.902344 171.289062 170.558594 171.011719 171.179688 C 170.734375 171.804688 170.417969 172.378906 170.066406 172.90625 C 169.714844 173.433594 169.332031 173.90625 168.917969 174.320312 C 168.503906 174.738281 168.066406 175.085938 167.605469 175.375 C 167.144531 175.660156 166.671875 175.875 166.179688 176.019531 C 165.691406 176.167969 165.199219 176.238281 164.699219 176.238281 C 164.203125 176.238281 163.710938 176.167969 163.21875 176.019531 C 162.730469 175.875 162.257812 175.660156 161.796875 175.375 C 161.335938 175.085938 160.898438 174.738281 160.484375 174.320312 C 160.070312 173.90625 159.6875 173.433594 159.335938 172.90625 C 158.984375 172.378906 158.667969 171.804688 158.390625 171.179688 C 158.113281 170.558594 157.878906 169.902344 157.691406 169.214844 C 157.5 168.523438 157.355469 167.8125 157.257812 167.078125 C 157.160156 166.347656 157.113281 165.605469 157.113281 164.859375 C 157.113281 164.113281 157.160156 163.371094 157.257812 162.636719 C 157.355469 161.90625 157.5 161.195312 157.691406 160.503906 C 157.878906 159.8125 158.113281 159.15625 158.390625 158.535156 C 158.667969 157.914062 158.984375 157.339844 159.335938 156.8125 C 159.6875 156.28125 160.070312 155.8125 160.484375 155.394531 C 160.898438 154.980469 161.335938 154.628906 161.796875 154.34375 C 162.257812 154.058594 162.730469 153.84375 163.21875 153.695312 C 163.710938 153.550781 164.203125 153.476562 164.699219 153.476562 C 165.199219 153.476562 165.691406 153.550781 166.179688 153.695312 C 166.671875 153.84375 167.144531 154.058594 167.605469 154.34375 C 168.066406 154.628906 168.503906 154.980469 168.917969 155.394531 C 169.332031 155.8125 169.714844 156.28125 170.066406 156.8125 C 170.417969 157.339844 170.734375 157.914062 171.011719 158.535156 C 171.289062 159.15625 171.523438 159.8125 171.710938 160.503906 C 171.902344 161.195312 172.046875 161.90625 172.144531 162.636719 C 172.242188 163.371094 172.289062 164.113281 172.289062 164.859375 Z M 172.289062 164.859375 " fill-opacity="1" fill-rule="nonzero"/><path fill="#9dfff2" d="M 218.25 164.859375 C 218.25 165.605469 218.203125 166.347656 218.105469 167.078125 C 218.007812 167.8125 217.863281 168.523438 217.671875 169.214844 C 217.484375 169.902344 217.25 170.558594 216.972656 171.179688 C 216.695312 171.804688 216.378906 172.378906 216.027344 172.90625 C 215.675781 173.433594 215.292969 173.90625 214.878906 174.320312 C 214.464844 174.738281 214.027344 175.085938 213.566406 175.375 C 213.105469 175.660156 212.632812 175.875 212.144531 176.019531 C 211.652344 176.167969 211.160156 176.238281 210.664062 176.238281 C 210.164062 176.238281 209.671875 176.167969 209.179688 176.019531 C 208.691406 175.875 208.21875 175.660156 207.757812 175.375 C 207.296875 175.085938 206.859375 174.738281 206.445312 174.320312 C 206.03125 173.90625 205.648438 173.433594 205.296875 172.90625 C 204.945312 172.378906 204.628906 171.804688 204.351562 171.179688 C 204.074219 170.558594 203.839844 169.902344 203.652344 169.214844 C 203.460938 168.523438 203.316406 167.8125 203.21875 167.078125 C 203.121094 166.347656 203.074219 165.605469 203.074219 164.859375 C 203.074219 164.113281 203.121094 163.371094 203.21875 162.636719 C 203.316406 161.90625 203.460938 161.195312 203.652344 160.503906 C 203.839844 159.8125 204.074219 159.15625 204.351562 158.535156 C 204.628906 157.914062 204.945312 157.339844 205.296875 156.8125 C 205.648438 156.28125 206.03125 155.8125 206.445312 155.394531 C 206.859375 154.980469 207.296875 154.628906 207.757812 154.34375 C 208.21875 154.058594 208.691406 153.84375 209.179688 153.695312 C 209.671875 153.550781 210.164062 153.476562 210.664062 153.476562 C 211.160156 153.476562 211.652344 153.550781 212.144531 153.695312 C 212.632812 153.84375 213.105469 154.058594 213.566406 154.34375 C 214.027344 154.628906 214.464844 154.980469 214.878906 155.394531 C 215.292969 155.8125 215.675781 156.28125 216.027344 156.8125 C 216.378906 157.339844 216.695312 157.914062 216.972656 158.535156 C 217.25 159.15625 217.484375 159.8125 217.671875 160.503906 C 217.863281 161.195312 218.007812 161.90625 218.105469 162.636719 C 218.203125 163.371094 218.25 164.113281 218.25 164.859375 Z M 218.25 164.859375 " fill-opacity="1" fill-rule="nonzero"/><path fill="#b3b3b3" d="M 197.539062 118.214844 C 196.210938 117.558594 194.582031 117.40625 193.152344 117.230469 C 190.671875 116.925781 188.183594 116.855469 185.6875 117.023438 C 182.386719 117.257812 179.109375 117.707031 175.867188 118.367188 C 175.402344 118.457031 174.785156 118.59375 174.132812 118.734375 C 173.941406 118.777344 173.757812 118.839844 173.585938 118.921875 C 173.410156 119.003906 173.246094 119.105469 173.089844 119.222656 C 172.9375 119.339844 172.800781 119.472656 172.675781 119.621094 C 172.550781 119.769531 172.445312 119.929688 172.359375 120.101562 C 172.269531 120.273438 172.199219 120.453125 172.152344 120.640625 C 172.101562 120.828125 172.074219 121.015625 172.066406 121.210938 C 172.0625 121.402344 172.074219 121.59375 172.109375 121.78125 C 172.144531 121.972656 172.199219 122.15625 172.277344 122.332031 C 172.40625 122.636719 172.546875 122.933594 172.65625 123.226562 C 174.609375 127.972656 175.863281 132.839844 176.949219 137.929688 C 177.796875 141.90625 179.476562 146.359375 183.386719 147.976562 C 183.578125 148.054688 183.730469 148.011719 183.851562 147.84375 C 183.96875 147.671875 183.953125 147.515625 183.808594 147.367188 C 182.511719 146.039062 180.5625 143.34375 179.234375 137.78125 C 178.671875 135.578125 178.152344 133.363281 177.675781 131.140625 C 177.582031 130.679688 176.734375 127.144531 176.59375 126.3125 C 176.515625 125.449219 176.59375 124.738281 177.003906 124.453125 C 177.199219 124.328125 177.410156 124.238281 177.636719 124.183594 C 177.8125 124.144531 177.988281 124.101562 178.164062 124.066406 C 182.769531 122.941406 185.804688 122.925781 191.070312 122.964844 C 192.515625 122.980469 194.050781 123.203125 195.277344 122.300781 C 196.179688 121.644531 197.25 120.199219 197.839844 119.339844 C 197.90625 119.246094 197.949219 119.144531 197.96875 119.035156 C 197.988281 118.925781 197.984375 118.816406 197.957031 118.707031 C 197.925781 118.597656 197.875 118.5 197.804688 118.414062 C 197.730469 118.328125 197.640625 118.261719 197.539062 118.214844 Z M 197.539062 118.214844 " fill-opacity="1" fill-rule="nonzero"/><path fill="#b3b3b3" d="M 193.054688 126.335938 C 190.46875 125.894531 187.867188 125.808594 185.253906 126.066406 C 184.015625 126.175781 180.589844 126.425781 179.734375 127.46875 C 179.230469 128.085938 180.089844 131.339844 180.84375 132.648438 C 181.027344 132.996094 181.296875 133.257812 181.65625 133.433594 C 182.339844 133.433594 181.84375 131.011719 184.828125 129.761719 C 186.15625 129.238281 191.210938 129.074219 193.988281 129.335938 C 194.78125 129.410156 197.261719 129.5625 196.839844 127.96875 C 196.585938 127.015625 193.820312 126.46875 193.054688 126.335938 Z M 193.054688 126.335938 " fill-opacity="1" fill-rule="nonzero"/><g fill="#263151" fill-opacity="1"><g transform="translate(71.263387, 258.473215)"><g><path d="M 2.65625 0 L 2.65625 -28 L 21.734375 -28 L 25.984375 -23.78125 L 25.984375 -13.75 L 22.796875 -10.5625 L 27.0625 0 L 19.90625 0 L 16.21875 -9.53125 L 9.765625 -9.53125 L 9.765625 0 Z M 9.765625 -14.9375 L 17.75 -14.9375 L 19.078125 -16.265625 L 19.078125 -21.28125 L 17.75 -22.609375 L 9.765625 -22.609375 Z M 9.765625 -14.9375 "/></g></g></g><g fill="#263151" fill-opacity="1"><g transform="translate(103.253639, 258.473215)"><g><path d="M 6.125 0 L 1.90625 -4.21875 L 1.90625 -23.78125 L 6.125 -28 L 22.53125 -28 L 26.75 -23.78125 L 26.75 -4.21875 L 22.53125 0 Z M 10.375 -5.390625 L 18.359375 -5.390625 L 19.6875 -6.71875 L 19.6875 -21.28125 L 18.28125 -22.609375 L 10.375 -22.609375 L 9 -21.28125 L 9 -6.71875 Z M 10.375 -5.390625 "/></g></g></g><g fill="#263151" fill-opacity="1"><g transform="translate(135.6998, 258.473215)"><g><path d="M 2.65625 0 L 2.65625 -28 L 21.359375 -28 L 25.578125 -23.78125 L 25.578125 -17.0625 L 23.671875 -15.125 L 26.671875 -12.3125 L 26.671875 -4.21875 L 22.453125 0 Z M 9.765625 -17.140625 L 17.4375 -17.140625 L 18.765625 -18.46875 L 18.765625 -21.28125 L 17.4375 -22.609375 L 9.765625 -22.609375 Z M 9.765625 -5.390625 L 18.234375 -5.390625 L 19.5625 -6.71875 L 19.5625 -10.875 L 18.234375 -12.203125 L 9.765625 -12.203125 Z M 9.765625 -5.390625 "/></g></g></g><g fill="#263151" fill-opacity="1"><g transform="translate(167.880012, 258.473215)"><g><path d="M 6.125 0 L 1.90625 -4.21875 L 1.90625 -23.78125 L 6.125 -28 L 22.53125 -28 L 26.75 -23.78125 L 26.75 -4.21875 L 22.53125 0 Z M 10.375 -5.390625 L 18.359375 -5.390625 L 19.6875 -6.71875 L 19.6875 -21.28125 L 18.28125 -22.609375 L 10.375 -22.609375 L 9 -21.28125 L 9 -6.71875 Z M 10.375 -5.390625 "/></g></g></g><g fill="#263151" fill-opacity="1"><g transform="translate(200.326173, 258.473215)"><g><path d="M 8.015625 0 L 8.015625 -22.234375 L 0.1875 -22.234375 L 0.1875 -28 L 22.953125 -28 L 22.953125 -22.234375 L 15.125 -22.234375 L 15.125 0 Z M 8.015625 0 "/></g></g></g><g fill="#263151" fill-opacity="1"><g transform="translate(227.263457, 258.473215)"><g><path d="M 1.515625 0 L 1.515625 -5.359375 L 4.640625 -5.359375 L 4.5625 -22.640625 L 1.515625 -22.640625 L 1.515625 -28 L 14.4375 -28 L 14.4375 -22.640625 L 11.359375 -22.640625 L 11.28125 -5.359375 L 14.4375 -5.359375 L 14.4375 0 Z M 1.515625 0 "/></g></g></g><g fill="#263151" fill-opacity="1"><g transform="translate(247.020204, 258.473215)"><g><path d="M 6.125 0 L 1.90625 -4.21875 L 1.90625 -23.78125 L 6.125 -28 L 20.515625 -28 L 24.78125 -23.78125 L 24.78125 -18.125 L 17.859375 -18.125 L 17.859375 -21.28125 L 16.484375 -22.609375 L 10.375 -22.609375 L 9 -21.28125 L 9 -6.71875 L 10.375 -5.390625 L 16.71875 -5.390625 L 18.125 -6.71875 L 18.125 -9.921875 L 25 -9.921875 L 25 -4.21875 L 20.78125 0 Z M 6.125 0 "/></g></g></g><g fill="#263151" fill-opacity="1"><g transform="translate(276.275009, 258.473215)"><g><path d="M 2.8125 0 L 2.8125 -5.703125 L 17.40625 -5.703125 L 18.734375 -7.03125 L 18.734375 -10.140625 L 17.40625 -11.46875 L 5.921875 -11.46875 L 1.703125 -15.734375 L 1.703125 -23.78125 L 5.921875 -28 L 24.25 -28 L 24.25 -22.3125 L 10.03125 -22.3125 L 8.703125 -20.96875 L 8.703125 -18.5 L 10.03125 -17.171875 L 21.515625 -17.171875 L 25.71875 -12.953125 L 25.71875 -4.21875 L 21.515625 0 Z M 2.8125 0 "/></g></g></g><g fill="#263151" fill-opacity="1"><g transform="translate(108.252683, 280.964542)"><g><path d="M 4.5625 0.140625 C 3.664062 0.140625 2.914062 0.0078125 2.3125 -0.25 C 1.707031 -0.507812 1.25 -0.847656 0.9375 -1.265625 C 0.632812 -1.691406 0.476562 -2.144531 0.46875 -2.625 C 0.46875 -2.707031 0.492188 -2.773438 0.546875 -2.828125 C 0.597656 -2.878906 0.664062 -2.90625 0.75 -2.90625 L 2.265625 -2.90625 C 2.390625 -2.90625 2.484375 -2.878906 2.546875 -2.828125 C 2.609375 -2.785156 2.671875 -2.726562 2.734375 -2.65625 C 2.796875 -2.488281 2.898438 -2.328125 3.046875 -2.171875 C 3.191406 -2.023438 3.382812 -1.90625 3.625 -1.8125 C 3.875 -1.726562 4.1875 -1.6875 4.5625 -1.6875 C 5.164062 -1.6875 5.617188 -1.78125 5.921875 -1.96875 C 6.234375 -2.164062 6.390625 -2.429688 6.390625 -2.765625 C 6.390625 -3.003906 6.304688 -3.195312 6.140625 -3.34375 C 5.972656 -3.488281 5.710938 -3.625 5.359375 -3.75 C 5.015625 -3.875 4.550781 -4 3.96875 -4.125 C 3.269531 -4.289062 2.675781 -4.488281 2.1875 -4.71875 C 1.695312 -4.957031 1.328125 -5.265625 1.078125 -5.640625 C 0.835938 -6.023438 0.71875 -6.5 0.71875 -7.0625 C 0.71875 -7.613281 0.867188 -8.109375 1.171875 -8.546875 C 1.484375 -8.984375 1.914062 -9.320312 2.46875 -9.5625 C 3.03125 -9.8125 3.703125 -9.9375 4.484375 -9.9375 C 5.109375 -9.9375 5.660156 -9.851562 6.140625 -9.6875 C 6.617188 -9.519531 7.019531 -9.300781 7.34375 -9.03125 C 7.664062 -8.757812 7.910156 -8.46875 8.078125 -8.15625 C 8.242188 -7.851562 8.332031 -7.554688 8.34375 -7.265625 C 8.34375 -7.179688 8.316406 -7.109375 8.265625 -7.046875 C 8.210938 -6.984375 8.140625 -6.953125 8.046875 -6.953125 L 6.484375 -6.953125 C 6.390625 -6.953125 6.304688 -6.96875 6.234375 -7 C 6.160156 -7.039062 6.09375 -7.109375 6.03125 -7.203125 C 5.988281 -7.460938 5.828125 -7.679688 5.546875 -7.859375 C 5.273438 -8.035156 4.921875 -8.125 4.484375 -8.125 C 4.023438 -8.125 3.660156 -8.039062 3.390625 -7.875 C 3.128906 -7.707031 3 -7.453125 3 -7.109375 C 3 -6.890625 3.066406 -6.703125 3.203125 -6.546875 C 3.347656 -6.390625 3.578125 -6.253906 3.890625 -6.140625 C 4.210938 -6.023438 4.644531 -5.898438 5.1875 -5.765625 C 5.988281 -5.597656 6.644531 -5.394531 7.15625 -5.15625 C 7.675781 -4.914062 8.054688 -4.613281 8.296875 -4.25 C 8.546875 -3.882812 8.671875 -3.421875 8.671875 -2.859375 C 8.671875 -2.234375 8.492188 -1.695312 8.140625 -1.25 C 7.796875 -0.800781 7.316406 -0.457031 6.703125 -0.21875 C 6.085938 0.0195312 5.375 0.140625 4.5625 0.140625 Z M 4.5625 0.140625 "/></g></g></g><g fill="#263151" fill-opacity="1"><g transform="translate(125.075591, 280.964542)"><g><path d="M 1.390625 0 C 1.285156 0 1.195312 -0.03125 1.125 -0.09375 C 1.0625 -0.164062 1.03125 -0.25 1.03125 -0.34375 L 1.03125 -9.453125 C 1.03125 -9.554688 1.0625 -9.640625 1.125 -9.703125 C 1.195312 -9.765625 1.285156 -9.796875 1.390625 -9.796875 L 2.703125 -9.796875 C 2.835938 -9.796875 2.941406 -9.757812 3.015625 -9.6875 C 3.085938 -9.613281 3.132812 -9.554688 3.15625 -9.515625 L 5.734375 -4.78125 L 8.328125 -9.515625 C 8.347656 -9.554688 8.390625 -9.613281 8.453125 -9.6875 C 8.523438 -9.757812 8.632812 -9.796875 8.78125 -9.796875 L 10.078125 -9.796875 C 10.179688 -9.796875 10.265625 -9.765625 10.328125 -9.703125 C 10.398438 -9.640625 10.4375 -9.554688 10.4375 -9.453125 L 10.4375 -0.34375 C 10.4375 -0.25 10.398438 -0.164062 10.328125 -0.09375 C 10.265625 -0.03125 10.179688 0 10.078125 0 L 8.65625 0 C 8.5625 0 8.476562 -0.03125 8.40625 -0.09375 C 8.34375 -0.164062 8.3125 -0.25 8.3125 -0.34375 L 8.3125 -5.984375 L 6.53125 -2.671875 C 6.5 -2.585938 6.445312 -2.515625 6.375 -2.453125 C 6.300781 -2.390625 6.195312 -2.359375 6.0625 -2.359375 L 5.40625 -2.359375 C 5.28125 -2.359375 5.179688 -2.390625 5.109375 -2.453125 C 5.035156 -2.515625 4.972656 -2.585938 4.921875 -2.671875 L 3.15625 -5.984375 L 3.15625 -0.34375 C 3.15625 -0.25 3.125 -0.164062 3.0625 -0.09375 C 3 -0.03125 2.914062 0 2.8125 0 Z M 1.390625 0 "/></g></g></g><g fill="#263151" fill-opacity="1"><g transform="translate(144.235188, 280.964542)"><g><path d="M 0.46875 0 C 0.382812 0 0.3125 -0.03125 0.25 -0.09375 C 0.195312 -0.15625 0.171875 -0.222656 0.171875 -0.296875 C 0.171875 -0.335938 0.175781 -0.378906 0.1875 -0.421875 L 3.515625 -9.421875 C 3.546875 -9.523438 3.601562 -9.613281 3.6875 -9.6875 C 3.769531 -9.757812 3.882812 -9.796875 4.03125 -9.796875 L 5.828125 -9.796875 C 5.972656 -9.796875 6.085938 -9.757812 6.171875 -9.6875 C 6.253906 -9.613281 6.316406 -9.523438 6.359375 -9.421875 L 9.671875 -0.421875 C 9.691406 -0.378906 9.703125 -0.335938 9.703125 -0.296875 C 9.703125 -0.222656 9.671875 -0.15625 9.609375 -0.09375 C 9.546875 -0.03125 9.472656 0 9.390625 0 L 7.921875 0 C 7.796875 0 7.695312 -0.03125 7.625 -0.09375 C 7.5625 -0.164062 7.519531 -0.226562 7.5 -0.28125 L 6.90625 -1.84375 L 2.953125 -1.84375 L 2.359375 -0.28125 C 2.335938 -0.226562 2.296875 -0.164062 2.234375 -0.09375 C 2.171875 -0.03125 2.070312 0 1.9375 0 Z M 3.484375 -3.65625 L 6.375 -3.65625 L 4.921875 -7.671875 Z M 3.484375 -3.65625 "/></g></g></g><g fill="#263151" fill-opacity="1"><g transform="translate(161.785692, 280.964542)"><g><path d="M 1.375 0 C 1.28125 0 1.195312 -0.03125 1.125 -0.09375 C 1.0625 -0.164062 1.03125 -0.25 1.03125 -0.34375 L 1.03125 -9.453125 C 1.03125 -9.554688 1.0625 -9.640625 1.125 -9.703125 C 1.195312 -9.765625 1.28125 -9.796875 1.375 -9.796875 L 5.09375 -9.796875 C 6.257812 -9.796875 7.175781 -9.523438 7.84375 -8.984375 C 8.519531 -8.453125 8.859375 -7.679688 8.859375 -6.671875 C 8.859375 -5.992188 8.691406 -5.425781 8.359375 -4.96875 C 8.035156 -4.507812 7.601562 -4.171875 7.0625 -3.953125 L 9.046875 -0.453125 C 9.078125 -0.390625 9.09375 -0.335938 9.09375 -0.296875 C 9.09375 -0.222656 9.0625 -0.15625 9 -0.09375 C 8.9375 -0.03125 8.867188 0 8.796875 0 L 7.21875 0 C 7.050781 0 6.925781 -0.0390625 6.84375 -0.125 C 6.757812 -0.21875 6.695312 -0.300781 6.65625 -0.375 L 4.953125 -3.578125 L 3.265625 -3.578125 L 3.265625 -0.34375 C 3.265625 -0.25 3.226562 -0.164062 3.15625 -0.09375 C 3.09375 -0.03125 3.007812 0 2.90625 0 Z M 3.265625 -5.359375 L 5.0625 -5.359375 C 5.570312 -5.359375 5.945312 -5.472656 6.1875 -5.703125 C 6.4375 -5.941406 6.5625 -6.269531 6.5625 -6.6875 C 6.5625 -7.113281 6.441406 -7.445312 6.203125 -7.6875 C 5.960938 -7.925781 5.582031 -8.046875 5.0625 -8.046875 L 3.265625 -8.046875 Z M 3.265625 -5.359375 "/></g></g></g><g fill="#263151" fill-opacity="1"><g transform="translate(179.028366, 280.964542)"><g><path d="M 3.546875 0 C 3.441406 0 3.351562 -0.03125 3.28125 -0.09375 C 3.21875 -0.164062 3.1875 -0.25 3.1875 -0.34375 L 3.1875 -7.84375 L 0.640625 -7.84375 C 0.546875 -7.84375 0.46875 -7.875 0.40625 -7.9375 C 0.34375 -8 0.3125 -8.082031 0.3125 -8.1875 L 0.3125 -9.453125 C 0.3125 -9.554688 0.34375 -9.640625 0.40625 -9.703125 C 0.46875 -9.765625 0.546875 -9.796875 0.640625 -9.796875 L 7.984375 -9.796875 C 8.085938 -9.796875 8.171875 -9.765625 8.234375 -9.703125 C 8.296875 -9.640625 8.328125 -9.554688 8.328125 -9.453125 L 8.328125 -8.1875 C 8.328125 -8.082031 8.296875 -8 8.234375 -7.9375 C 8.171875 -7.875 8.085938 -7.84375 7.984375 -7.84375 L 5.453125 -7.84375 L 5.453125 -0.34375 C 5.453125 -0.25 5.414062 -0.164062 5.34375 -0.09375 C 5.28125 -0.03125 5.195312 0 5.09375 0 Z M 3.546875 0 "/></g></g></g><g fill="#263151" fill-opacity="1"><g transform="translate(195.361545, 280.964542)"><g/></g></g><g fill="#263151" fill-opacity="1"><g transform="translate(206.153815, 280.964542)"><g><path d="M 3.546875 0 C 3.441406 0 3.351562 -0.03125 3.28125 -0.09375 C 3.21875 -0.164062 3.1875 -0.25 3.1875 -0.34375 L 3.1875 -7.84375 L 0.640625 -7.84375 C 0.546875 -7.84375 0.46875 -7.875 0.40625 -7.9375 C 0.34375 -8 0.3125 -8.082031 0.3125 -8.1875 L 0.3125 -9.453125 C 0.3125 -9.554688 0.34375 -9.640625 0.40625 -9.703125 C 0.46875 -9.765625 0.546875 -9.796875 0.640625 -9.796875 L 7.984375 -9.796875 C 8.085938 -9.796875 8.171875 -9.765625 8.234375 -9.703125 C 8.296875 -9.640625 8.328125 -9.554688 8.328125 -9.453125 L 8.328125 -8.1875 C 8.328125 -8.082031 8.296875 -8 8.234375 -7.9375 C 8.171875 -7.875 8.085938 -7.84375 7.984375 -7.84375 L 5.453125 -7.84375 L 5.453125 -0.34375 C 5.453125 -0.25 5.414062 -0.164062 5.34375 -0.09375 C 5.28125 -0.03125 5.195312 0 5.09375 0 Z M 3.546875 0 "/></g></g></g><g fill="#263151" fill-opacity="1"><g transform="translate(222.486993, 280.964542)"><g><path d="M 1.375 0 C 1.28125 0 1.195312 -0.03125 1.125 -0.09375 C 1.0625 -0.164062 1.03125 -0.25 1.03125 -0.34375 L 1.03125 -9.453125 C 1.03125 -9.554688 1.0625 -9.640625 1.125 -9.703125 C 1.195312 -9.765625 1.28125 -9.796875 1.375 -9.796875 L 7.734375 -9.796875 C 7.828125 -9.796875 7.90625 -9.765625 7.96875 -9.703125 C 8.039062 -9.640625 8.078125 -9.554688 8.078125 -9.453125 L 8.078125 -8.328125 C 8.078125 -8.222656 8.039062 -8.140625 7.96875 -8.078125 C 7.90625 -8.015625 7.828125 -7.984375 7.734375 -7.984375 L 3.1875 -7.984375 L 3.1875 -5.796875 L 7.421875 -5.796875 C 7.523438 -5.796875 7.609375 -5.757812 7.671875 -5.6875 C 7.734375 -5.625 7.765625 -5.546875 7.765625 -5.453125 L 7.765625 -4.40625 C 7.765625 -4.3125 7.734375 -4.226562 7.671875 -4.15625 C 7.609375 -4.09375 7.523438 -4.0625 7.421875 -4.0625 L 3.1875 -4.0625 L 3.1875 -1.8125 L 7.84375 -1.8125 C 7.945312 -1.8125 8.03125 -1.78125 8.09375 -1.71875 C 8.15625 -1.65625 8.1875 -1.570312 8.1875 -1.46875 L 8.1875 -0.34375 C 8.1875 -0.25 8.15625 -0.164062 8.09375 -0.09375 C 8.03125 -0.03125 7.945312 0 7.84375 0 Z M 1.375 0 "/></g></g></g><g fill="#263151" fill-opacity="1"><g transform="translate(239.01606, 280.964542)"><g><path d="M 4.921875 0.140625 C 4.054688 0.140625 3.316406 -0.00390625 2.703125 -0.296875 C 2.085938 -0.585938 1.609375 -1.015625 1.265625 -1.578125 C 0.929688 -2.148438 0.75 -2.84375 0.71875 -3.65625 C 0.707031 -4.039062 0.703125 -4.453125 0.703125 -4.890625 C 0.703125 -5.328125 0.707031 -5.742188 0.71875 -6.140625 C 0.75 -6.941406 0.9375 -7.625 1.28125 -8.1875 C 1.625 -8.757812 2.101562 -9.191406 2.71875 -9.484375 C 3.332031 -9.785156 4.066406 -9.9375 4.921875 -9.9375 C 5.554688 -9.9375 6.128906 -9.859375 6.640625 -9.703125 C 7.148438 -9.546875 7.59375 -9.316406 7.96875 -9.015625 C 8.34375 -8.710938 8.632812 -8.359375 8.84375 -7.953125 C 9.050781 -7.554688 9.160156 -7.113281 9.171875 -6.625 C 9.179688 -6.539062 9.15625 -6.46875 9.09375 -6.40625 C 9.03125 -6.351562 8.957031 -6.328125 8.875 -6.328125 L 7.265625 -6.328125 C 7.148438 -6.328125 7.0625 -6.351562 7 -6.40625 C 6.9375 -6.457031 6.882812 -6.546875 6.84375 -6.671875 C 6.707031 -7.234375 6.472656 -7.613281 6.140625 -7.8125 C 5.816406 -8.019531 5.410156 -8.125 4.921875 -8.125 C 4.359375 -8.125 3.90625 -7.960938 3.5625 -7.640625 C 3.226562 -7.328125 3.050781 -6.804688 3.03125 -6.078125 C 3 -5.304688 3 -4.519531 3.03125 -3.71875 C 3.050781 -2.988281 3.226562 -2.46875 3.5625 -2.15625 C 3.90625 -1.84375 4.359375 -1.6875 4.921875 -1.6875 C 5.410156 -1.6875 5.820312 -1.785156 6.15625 -1.984375 C 6.488281 -2.191406 6.71875 -2.570312 6.84375 -3.125 C 6.882812 -3.25 6.9375 -3.335938 7 -3.390625 C 7.0625 -3.441406 7.148438 -3.46875 7.265625 -3.46875 L 8.875 -3.46875 C 8.957031 -3.46875 9.03125 -3.4375 9.09375 -3.375 C 9.15625 -3.320312 9.179688 -3.253906 9.171875 -3.171875 C 9.160156 -2.679688 9.050781 -2.234375 8.84375 -1.828125 C 8.632812 -1.429688 8.34375 -1.082031 7.96875 -0.78125 C 7.59375 -0.488281 7.148438 -0.257812 6.640625 -0.09375 C 6.128906 0.0625 5.554688 0.140625 4.921875 0.140625 Z M 4.921875 0.140625 "/></g></g></g><g fill="#263151" fill-opacity="1"><g transform="translate(256.412646, 280.964542)"><g><path d="M 1.375 0 C 1.28125 0 1.195312 -0.03125 1.125 -0.09375 C 1.0625 -0.164062 1.03125 -0.25 1.03125 -0.34375 L 1.03125 -9.453125 C 1.03125 -9.554688 1.0625 -9.640625 1.125 -9.703125 C 1.195312 -9.765625 1.28125 -9.796875 1.375 -9.796875 L 2.90625 -9.796875 C 3.007812 -9.796875 3.09375 -9.765625 3.15625 -9.703125 C 3.226562 -9.640625 3.265625 -9.554688 3.265625 -9.453125 L 3.265625 -5.953125 L 7.0625 -5.953125 L 7.0625 -9.453125 C 7.0625 -9.554688 7.09375 -9.640625 7.15625 -9.703125 C 7.21875 -9.765625 7.296875 -9.796875 7.390625 -9.796875 L 8.9375 -9.796875 C 9.039062 -9.796875 9.125 -9.765625 9.1875 -9.703125 C 9.25 -9.640625 9.28125 -9.554688 9.28125 -9.453125 L 9.28125 -0.34375 C 9.28125 -0.25 9.25 -0.164062 9.1875 -0.09375 C 9.125 -0.03125 9.039062 0 8.9375 0 L 7.390625 0 C 7.296875 0 7.21875 -0.03125 7.15625 -0.09375 C 7.09375 -0.164062 7.0625 -0.25 7.0625 -0.34375 L 7.0625 -3.96875 L 3.265625 -3.96875 L 3.265625 -0.34375 C 3.265625 -0.25 3.226562 -0.164062 3.15625 -0.09375 C 3.09375 -0.03125 3.007812 0 2.90625 0 Z M 1.375 0 "/></g></g></g></svg>